<svg width="573" height="505" viewBox="0 0 573 505" fill="none" xmlns="http://www.w3.org/2000/svg">
<g clip-path="url(#clip0)">
<rect x="0.77832" width="571.267" height="505"/>
<path d="M179.265 304.318C177.498 304.318 176.073 302.893 176.073 301.125C176.073 299.357 177.498 297.932 179.265 297.932C187.09 297.932 193.708 286.71 193.708 273.418C193.708 271.65 195.133 270.225 196.901 270.225C198.669 270.225 200.094 271.65 200.094 273.418C200.107 290.738 190.954 304.318 179.265 304.318Z" fill="#0053CC"/>
<path d="M227.622 304.318C225.855 304.318 224.43 302.893 224.43 301.125C224.43 299.357 225.855 297.932 227.622 297.932C235.447 297.932 242.065 286.71 242.065 273.418C242.065 271.65 243.49 270.225 245.258 270.225C247.026 270.225 248.451 271.65 248.451 273.418C248.464 290.738 239.311 304.318 227.622 304.318Z" fill="#0053CC"/>
<path d="M275.98 304.318C274.212 304.318 272.787 302.893 272.787 301.125C272.787 299.357 274.212 297.932 275.98 297.932C283.804 297.932 290.423 286.71 290.423 273.418C290.423 271.65 291.848 270.225 293.615 270.225C295.383 270.225 296.808 271.65 296.808 273.418C296.808 290.738 287.668 304.318 275.98 304.318Z" fill="#0053CC"/>
<path d="M324.336 304.318C322.569 304.318 321.144 302.893 321.144 301.125C321.144 299.357 322.569 297.932 324.336 297.932C332.161 297.932 338.779 286.71 338.779 273.418C338.779 271.65 340.204 270.225 341.972 270.225C343.739 270.225 345.164 271.65 345.164 273.418C345.164 290.738 336.011 304.318 324.336 304.318Z" fill="#0053CC"/>
<path d="M372.68 304.318C370.912 304.318 369.487 302.893 369.487 301.125C369.487 299.357 370.912 297.932 372.68 297.932C380.504 297.932 387.123 286.71 387.123 273.418C387.123 271.65 388.548 270.225 390.316 270.225C392.083 270.225 393.508 271.65 393.508 273.418C393.522 290.738 384.369 304.318 372.68 304.318Z" fill="#0053CC"/>
<path d="M421.037 304.318C419.269 304.318 417.844 302.893 417.844 301.125C417.844 299.357 419.269 297.932 421.037 297.932C428.861 297.932 435.479 286.71 435.479 273.418C435.479 271.65 436.904 270.225 438.672 270.225C440.44 270.225 441.865 271.65 441.865 273.418C441.878 290.738 432.725 304.318 421.037 304.318Z" fill="#0053CC"/>
<path opacity="0.7" d="M148.969 276.679H460.282C468.723 276.679 476.232 283.586 476.986 292.026L494.224 486.372C494.977 494.813 488.674 501.72 480.247 501.72H168.92C160.479 501.72 152.97 494.813 152.217 486.372L134.979 292.026C134.239 283.572 140.528 276.679 148.969 276.679Z" fill="#318FFF"/>
<path d="M457.678 276.679H146.365C137.924 276.679 130.717 283.586 130.333 292.026L121.563 486.372C121.18 494.813 127.771 501.72 136.212 501.72H447.511C455.951 501.72 463.159 494.813 463.543 486.372L472.313 292.026C472.696 283.572 466.105 276.679 457.678 276.679Z" fill="#318FFF"/>
<path d="M152.08 450.348L159.328 289.848C159.479 286.614 162.22 283.983 165.453 283.983H437.905C441.139 283.983 443.647 286.614 443.51 289.848L436.261 450.348C436.11 453.582 433.37 456.213 430.136 456.213H157.684C154.45 456.213 151.943 453.582 152.08 450.348Z" fill="#DCE9FF"/>
<path d="M144.365 463.434L151.97 294.877C152.12 291.478 155.012 288.71 158.41 288.71H444.551C447.949 288.71 450.58 291.465 450.429 294.877L442.824 463.434C442.674 466.832 439.782 469.587 436.384 469.587H150.243C146.845 469.6 144.2 466.832 144.365 463.434Z" fill="#DCE9FF"/>
<path d="M137.321 477.027L145.255 301.221C145.419 297.672 148.42 294.794 151.969 294.794H450.429C453.978 294.794 456.718 297.672 456.568 301.221L448.634 477.027C448.469 480.576 445.468 483.454 441.919 483.454H143.46C139.911 483.454 137.157 480.576 137.321 477.027Z" fill="white"/>
<g opacity="0.8">
<path opacity="0.8" d="M192.654 372.407H160.973C158.013 372.407 155.711 369.995 155.848 367.035L157.273 335.368C157.41 332.409 159.932 329.997 162.891 329.997H194.558C197.518 329.997 199.82 332.409 199.683 335.368L198.258 367.035C198.135 369.981 195.6 372.407 192.654 372.407Z" fill="#DCE9FF"/>
<path opacity="0.8" d="M241.01 372.407H209.343C206.383 372.407 204.081 369.995 204.218 367.035L205.643 335.368C205.78 332.409 208.302 329.997 211.261 329.997H242.928C245.888 329.997 248.19 332.409 248.053 335.368L246.628 367.035C246.491 369.981 243.956 372.407 241.01 372.407Z" fill="#DCE9FF"/>
<path opacity="0.8" d="M289.354 372.407H257.687C254.727 372.407 252.425 369.995 252.562 367.035L253.987 335.368C254.124 332.409 256.645 329.997 259.605 329.997H291.272C294.232 329.997 296.534 332.409 296.397 335.368L294.972 367.035C294.835 369.981 292.314 372.407 289.354 372.407Z" fill="#DCE9FF"/>
<path opacity="0.8" d="M337.711 372.407H306.044C303.084 372.407 300.782 369.995 300.919 367.035L302.344 335.368C302.481 332.409 305.002 329.997 307.962 329.997H339.629C342.589 329.997 344.891 332.409 344.754 335.368L343.329 367.035C343.192 369.981 340.671 372.407 337.711 372.407Z" fill="#DCE9FF"/>
<path opacity="0.8" d="M386.068 372.407H354.401C351.441 372.407 349.139 369.995 349.276 367.035L350.701 335.368C350.838 332.409 353.36 329.997 356.32 329.997H387.987C390.946 329.997 393.248 332.409 393.111 335.368L391.686 367.035C391.549 369.981 389.014 372.407 386.068 372.407Z" fill="#DCE9FF"/>
<path opacity="0.8" d="M434.411 372.407H402.744C399.784 372.407 397.482 369.995 397.619 367.035L399.044 335.368C399.181 332.409 401.703 329.997 404.662 329.997H436.329C439.289 329.997 441.591 332.409 441.454 335.368L440.029 367.035C439.906 369.981 437.371 372.407 434.411 372.407Z" fill="#DCE9FF"/>
<g opacity="0.8">
<path opacity="0.8" d="M420.996 305.332C418.598 305.332 416.721 303.372 416.83 300.974V300.961C416.926 298.713 418.845 296.891 421.092 296.891C423.49 296.891 425.367 298.85 425.257 301.248V301.262C425.148 303.509 423.229 305.332 420.996 305.332Z" fill="#318FFF"/>
<path opacity="0.8" d="M372.639 305.332C370.241 305.332 368.364 303.372 368.473 300.974V300.961C368.569 298.713 370.488 296.891 372.735 296.891C375.133 296.891 377.01 298.85 376.901 301.248V301.262C376.805 303.509 374.886 305.332 372.639 305.332Z" fill="#318FFF"/>
<path opacity="0.8" d="M324.282 305.332C321.884 305.332 320.007 303.372 320.116 300.974V300.961C320.212 298.713 322.131 296.891 324.378 296.891C326.776 296.891 328.653 298.85 328.544 301.248V301.262C328.448 303.509 326.529 305.332 324.282 305.332Z" fill="#318FFF"/>
<path opacity="0.8" d="M275.925 305.332C273.527 305.332 271.65 303.372 271.759 300.974V300.961C271.855 298.713 273.774 296.891 276.021 296.891C278.419 296.891 280.296 298.85 280.187 301.248V301.262C280.091 303.509 278.172 305.332 275.925 305.332Z" fill="#318FFF"/>
<path opacity="0.8" d="M227.581 305.332C225.183 305.332 223.306 303.372 223.416 300.974V300.961C223.512 298.713 225.43 296.891 227.677 296.891C230.075 296.891 231.953 298.85 231.843 301.248V301.262C231.733 303.509 229.815 305.332 227.581 305.332Z" fill="#318FFF"/>
<path opacity="0.8" d="M179.225 305.332C176.827 305.332 174.95 303.372 175.059 300.974V300.961C175.155 298.713 177.074 296.891 179.321 296.891C181.719 296.891 183.596 298.85 183.486 301.248V301.262C183.391 303.509 181.472 305.332 179.225 305.332Z" fill="#318FFF"/>
</g>
</g>
<path d="M191.311 320.651H166.988C165.508 320.651 164.357 319.446 164.426 317.966C164.494 316.486 165.755 315.28 167.235 315.28H191.557C193.037 315.28 194.188 316.486 194.12 317.966C194.051 319.446 192.79 320.651 191.311 320.651Z" fill="#0053CC"/>
<path d="M239.667 320.651H215.345C213.865 320.651 212.714 319.446 212.783 317.966C212.851 316.486 214.112 315.28 215.592 315.28H239.914C241.394 315.28 242.545 316.486 242.477 317.966C242.408 319.446 241.147 320.651 239.667 320.651Z" fill="#0053CC"/>
<path d="M288.025 320.651H263.703C262.223 320.651 261.072 319.446 261.14 317.966C261.209 316.486 262.469 315.28 263.949 315.28H288.272C289.751 315.28 290.902 316.486 290.834 317.966C290.765 319.446 289.491 320.651 288.025 320.651Z" fill="#0053CC"/>
<path d="M336.367 320.651H312.045C310.565 320.651 309.414 319.446 309.482 317.966C309.551 316.486 310.812 315.28 312.291 315.28H336.614C338.094 315.28 339.245 316.486 339.176 317.966C339.108 319.446 337.847 320.651 336.367 320.651Z" fill="#0053CC"/>
<path d="M384.725 320.651H360.402C358.922 320.651 357.771 319.446 357.84 317.966C357.908 316.486 359.169 315.28 360.649 315.28H384.971C386.451 315.28 387.602 316.486 387.534 317.966C387.465 319.446 386.205 320.651 384.725 320.651Z" fill="#0053CC"/>
<path d="M433.082 320.651H408.759C407.279 320.651 406.128 319.446 406.197 317.966C406.265 316.486 407.526 315.28 409.006 315.28H433.328C434.808 315.28 435.959 316.486 435.891 317.966C435.822 319.446 434.561 320.651 433.082 320.651Z" fill="#0053CC"/>
<g opacity="0.8">
<path opacity="0.8" d="M190.434 421.559H158.767C155.807 421.559 153.505 419.147 153.642 416.187L155.067 384.52C155.204 381.56 157.725 379.149 160.685 379.149H192.352C195.312 379.149 197.614 381.56 197.477 384.52L196.052 416.187C195.915 419.133 193.38 421.559 190.434 421.559Z" fill="#DCE9FF"/>
<path opacity="0.8" d="M238.79 421.559H207.123C204.164 421.559 201.861 419.147 201.998 416.187L203.424 384.52C203.561 381.56 206.082 379.149 209.042 379.149H240.709C243.669 379.149 245.971 381.56 245.834 384.52L244.409 416.187C244.271 419.133 241.736 421.559 238.79 421.559Z" fill="#DCE9FF"/>
<path opacity="0.8" d="M287.134 421.559H255.467C252.507 421.559 250.205 419.147 250.342 416.187L251.767 384.52C251.904 381.56 254.425 379.149 257.385 379.149H289.052C292.012 379.149 294.314 381.56 294.177 384.52L292.752 416.187C292.615 419.133 290.093 421.559 287.134 421.559Z" fill="#DCE9FF"/>
<path opacity="0.8" d="M335.491 421.559H303.824C300.864 421.559 298.562 419.147 298.699 416.187L300.124 384.52C300.261 381.56 302.782 379.149 305.742 379.149H337.409C340.369 379.149 342.671 381.56 342.534 384.52L341.109 416.187C340.972 419.133 338.45 421.559 335.491 421.559Z" fill="#DCE9FF"/>
<path opacity="0.8" d="M383.848 421.559H352.18C349.221 421.559 346.919 419.147 347.056 416.187L348.481 384.52C348.618 381.56 351.139 379.149 354.099 379.149H385.766C388.726 379.149 391.028 381.56 390.891 384.52L389.466 416.187C389.329 419.133 386.794 421.559 383.848 421.559Z" fill="#DCE9FF"/>
<path opacity="0.8" d="M432.205 421.559H400.538C397.579 421.559 395.277 419.147 395.414 416.187L396.839 384.52C396.976 381.56 399.497 379.149 402.457 379.149H434.124C437.084 379.149 439.386 381.56 439.249 384.52L437.824 416.187C437.687 419.133 435.152 421.559 432.205 421.559Z" fill="#DCE9FF"/>
</g>
<g opacity="0.8">
<path opacity="0.8" d="M188.214 470.697H156.547C153.587 470.697 151.285 468.285 151.422 465.325L152.847 433.658C152.984 430.698 155.505 428.287 158.465 428.287H190.132C193.092 428.287 195.394 430.698 195.257 433.658L193.832 465.325C193.695 468.285 191.173 470.697 188.214 470.697Z" fill="#DCE9FF"/>
<path opacity="0.8" d="M236.571 470.697H204.904C201.944 470.697 199.642 468.285 199.779 465.325L201.204 433.658C201.341 430.698 203.863 428.287 206.822 428.287H238.49C241.449 428.287 243.751 430.698 243.614 433.658L242.189 465.325C242.052 468.285 239.517 470.697 236.571 470.697Z" fill="#DCE9FF"/>
<path opacity="0.8" d="M284.913 470.697H253.246C250.287 470.697 247.985 468.285 248.122 465.325L249.547 433.658C249.684 430.698 252.205 428.287 255.165 428.287H286.832C289.792 428.287 292.094 430.698 291.957 433.658L290.532 465.325C290.395 468.285 287.873 470.697 284.913 470.697Z" fill="#DCE9FF"/>
<path opacity="0.8" d="M333.271 470.697H301.604C298.644 470.697 296.342 468.285 296.479 465.325L297.904 433.658C298.041 430.698 300.562 428.287 303.522 428.287H335.189C338.149 428.287 340.451 430.698 340.314 433.658L338.889 465.325C338.752 468.285 336.231 470.697 333.271 470.697Z" fill="#DCE9FF"/>
<path opacity="0.8" d="M381.628 470.697H349.961C347.001 470.697 344.699 468.285 344.836 465.325L346.261 433.658C346.398 430.698 348.919 428.287 351.879 428.287H383.546C386.506 428.287 388.808 430.698 388.671 433.658L387.246 465.325C387.109 468.285 384.588 470.697 381.628 470.697Z" fill="#DCE9FF"/>
<path opacity="0.8" d="M429.985 470.697H398.304C395.345 470.697 393.043 468.285 393.18 465.325L394.605 433.658C394.742 430.698 397.263 428.287 400.223 428.287H431.89C434.85 428.287 437.152 430.698 437.015 433.658L435.59 465.325C435.466 468.285 432.931 470.697 429.985 470.697Z" fill="#DCE9FF"/>
</g>
<path d="M179.266 304.318C167.577 304.318 158.424 290.738 158.424 273.418C158.424 256.098 167.577 242.518 179.266 242.518C190.954 242.518 200.108 256.098 200.108 273.418C200.108 275.186 198.682 276.611 196.915 276.611C195.147 276.611 193.722 275.186 193.722 273.418C193.722 260.126 187.104 248.904 179.279 248.904C171.455 248.904 164.837 260.126 164.837 273.418C164.837 286.71 171.455 297.932 179.279 297.932C181.047 297.932 182.472 299.357 182.472 301.125C182.472 302.879 181.033 304.318 179.266 304.318Z" fill="#0053CC"/>
<path d="M227.623 304.318C215.934 304.318 206.781 290.738 206.781 273.418C206.781 256.098 215.934 242.518 227.623 242.518C239.311 242.518 248.465 256.098 248.465 273.418C248.465 275.186 247.039 276.611 245.272 276.611C243.504 276.611 242.079 275.186 242.079 273.418C242.079 260.126 235.461 248.904 227.636 248.904C219.812 248.904 213.194 260.126 213.194 273.418C213.194 286.71 219.812 297.932 227.636 297.932C229.404 297.932 230.829 299.357 230.829 301.125C230.815 302.879 229.39 304.318 227.623 304.318Z" fill="#0053CC"/>
<path d="M275.98 304.318C264.292 304.318 255.138 290.738 255.138 273.418C255.138 256.098 264.292 242.518 275.98 242.518C287.669 242.518 296.822 256.098 296.822 273.418C296.822 275.186 295.397 276.611 293.629 276.611C291.862 276.611 290.436 275.186 290.436 273.418C290.436 260.126 283.818 248.904 275.994 248.904C268.169 248.904 261.551 260.126 261.551 273.418C261.551 286.71 268.169 297.932 275.994 297.932C277.761 297.932 279.186 299.357 279.186 301.125C279.173 302.879 277.748 304.318 275.98 304.318Z" fill="#0053CC"/>
<path d="M324.336 304.318C312.648 304.318 303.508 290.738 303.508 273.418C303.508 256.098 312.661 242.518 324.336 242.518C336.024 242.518 345.178 256.098 345.178 273.418C345.178 275.186 343.753 276.611 341.985 276.611C340.218 276.611 338.792 275.186 338.792 273.418C338.792 260.126 332.174 248.904 324.35 248.904C316.525 248.904 309.907 260.126 309.907 273.418C309.907 286.71 316.525 297.932 324.35 297.932C326.117 297.932 327.542 299.357 327.542 301.125C327.529 302.879 326.09 304.318 324.336 304.318Z" fill="#0053CC"/>
<path d="M372.68 304.318C360.991 304.318 351.838 290.738 351.838 273.418C351.838 256.098 360.991 242.518 372.68 242.518C384.368 242.518 393.508 256.098 393.508 273.418C393.508 275.186 392.083 276.611 390.315 276.611C388.548 276.611 387.122 275.186 387.122 273.418C387.122 260.126 380.504 248.904 372.68 248.904C364.855 248.904 358.237 260.126 358.237 273.418C358.237 286.71 364.855 297.932 372.68 297.932C374.447 297.932 375.872 299.357 375.872 301.125C375.886 302.879 374.447 304.318 372.68 304.318Z" fill="#0053CC"/>
<path d="M421.037 304.318C409.349 304.318 400.209 290.738 400.209 273.418C400.209 256.098 409.362 242.518 421.037 242.518C432.726 242.518 441.865 256.098 441.865 273.418C441.865 275.186 440.44 276.611 438.673 276.611C436.905 276.611 435.48 275.186 435.48 273.418C435.48 260.126 428.861 248.904 421.037 248.904C413.213 248.904 406.594 260.126 406.594 273.418C406.594 286.71 413.213 297.932 421.037 297.932C422.805 297.932 424.23 299.357 424.23 301.125C424.23 302.879 422.805 304.318 421.037 304.318Z" fill="#0053CC"/>
<path d="M327.571 374.174C316.389 371.954 303.824 374.544 299.357 386.329C295.753 395.811 300.371 406.088 310.36 408.596C319.13 410.788 334.258 408.102 337.382 397.99C340.958 386.425 326.461 382.67 318.267 381.985C315.814 381.779 315.827 385.616 318.267 385.822C321.98 386.137 326.228 386.342 329.503 388.384C336.409 392.673 333.531 399.552 327.694 402.84C321.966 406.061 312.922 406.965 307.195 403.306C300.891 399.278 300.686 390.453 304.427 384.712C309.373 377.107 318.404 376.257 326.543 377.874C328.968 378.354 329.996 374.654 327.571 374.174Z" fill="#318FFF"/>
<path d="M204.204 330.038C214.934 344.22 226.8 357.402 239.845 369.502C241.654 371.174 244.367 368.474 242.558 366.789C229.76 354.922 218.058 342.028 207.52 328.106C206.041 326.16 202.711 328.065 204.204 330.038Z" fill="#0053CC"/>
<path d="M208.165 367.898C216.236 353.524 230.405 341.26 243.765 331.874C245.765 330.463 243.861 327.133 241.833 328.558C227.911 338.342 213.276 350.976 204.863 365.953C203.643 368.118 206.959 370.05 208.165 367.898Z" fill="#0053CC"/>
<path d="M356.606 342.302C364.937 342.302 373.269 342.302 381.6 342.302C384.067 342.302 384.067 338.465 381.6 338.465C373.269 338.465 364.937 338.465 356.606 338.465C354.14 338.479 354.14 342.302 356.606 342.302Z" fill="#318FFF"/>
<path d="M356.319 349.414C361.142 349.414 365.98 349.414 370.803 349.414C373.269 349.414 373.269 345.577 370.803 345.577C365.98 345.577 361.142 345.577 356.319 345.577C353.853 345.577 353.853 349.414 356.319 349.414Z" fill="#318FFF"/>
<path d="M206.822 440.468C213.975 440.468 221.127 440.468 228.267 440.468C230.733 440.468 230.733 436.632 228.267 436.632C221.114 436.632 213.961 436.632 206.822 436.632C204.355 436.632 204.342 440.468 206.822 440.468Z" fill="#318FFF"/>
<path d="M206.041 448.704C215.318 448.704 224.609 448.704 233.885 448.704C236.352 448.704 236.352 444.867 233.885 444.867C224.609 444.867 215.318 444.867 206.041 444.867C203.561 444.867 203.561 448.704 206.041 448.704Z" fill="#318FFF"/>
<path d="M206.041 457.227C210.687 457.227 215.318 457.227 219.963 457.227C222.43 457.227 222.43 453.39 219.963 453.39C215.318 453.39 210.687 453.39 206.041 453.39C203.561 453.39 203.561 457.227 206.041 457.227Z" fill="#0053CC"/>
<path d="M55.5846 225.322L62.066 225.034L59.1336 237.339C59.1336 237.339 55.5161 234.941 52.8577 231.803C51.7478 230.488 51.8849 228.528 53.1866 227.404L55.5846 225.322Z" fill="#FF8B7B"/>
<path d="M69.589 231.666L66.684 241.71L59.1338 237.339L62.0662 225.034L69.589 231.666Z" fill="#FF8B7B"/>
<path d="M68.3077 172.125L55.0459 173.353L85.4646 501.855L98.7264 500.627L68.3077 172.125Z" fill="#0053CC"/>
<path d="M94.8341 169.658L81.5723 170.886L111.991 499.389L125.253 498.161L94.8341 169.658Z" fill="#0053CC"/>
<path d="M81.5714 170.892L68.3096 172.12L98.7283 500.622L111.99 499.394L81.5714 170.892Z" fill="#056CE8"/>
<path d="M78.7835 147.928L66.8484 149.038L55.0503 173.361L94.8431 169.675L78.7835 147.928Z" fill="#DCE9FF"/>
<path d="M71.9054 138.611L66.8491 149.038L78.7842 147.928L71.9054 138.611Z" fill="#0053CC"/>
<path d="M172.182 157.178C173.539 158.589 174.69 159.85 175.868 161.22C177.033 162.577 178.17 163.933 179.294 165.317C181.555 168.071 183.665 170.935 185.721 173.881C189.79 179.774 193.504 186.063 196.381 193.065C196.738 193.942 197.053 194.874 197.382 195.765L197.875 197.149C198.149 197.998 198.354 198.848 198.45 199.67C198.861 202.986 198.149 205.548 197.395 207.713C195.792 212.03 193.558 215.154 191.256 218.128C186.556 223.965 181.377 228.665 175.594 232.995L170.428 227.487C174.443 222.321 178.458 216.853 181.555 211.468C183.076 208.81 184.391 206.014 184.885 203.808C185.131 202.739 185.076 201.849 184.953 201.766C184.939 201.725 184.898 201.766 184.912 201.808L184.46 200.807C184.145 200.122 183.857 199.451 183.528 198.766C180.788 193.326 177.266 187.94 173.388 182.747C171.47 180.13 169.442 177.581 167.386 175.046C166.359 173.772 165.317 172.525 164.248 171.292L161.11 167.701L172.182 157.178Z" fill="#FF8B7B"/>
<path d="M162.11 231.816L167.948 243.368L173.662 238.449L168.975 230.241L162.11 231.816Z" fill="#FF8B7B"/>
<path d="M118.138 163.933C114.589 170.702 110.889 177.389 107.066 184.008C105.175 187.337 103.216 190.612 101.298 193.915L98.3514 198.834L97.6115 200.067C97.2415 200.656 96.8304 201.355 96.4741 201.821C96.1042 202.342 95.7205 202.849 95.3642 203.274C94.9942 203.74 94.638 204.164 94.268 204.575C91.3493 207.837 88.4306 210.468 85.4434 213.099C82.4425 215.661 79.4416 218.155 76.3448 220.525C70.206 225.308 63.9164 229.761 57.3939 234.009L52.6938 228.089L68.9453 212.098C71.6036 209.413 74.2757 206.768 76.8107 204.055C79.3457 201.383 81.8807 198.628 83.8539 195.998C84.1143 195.669 84.3335 195.354 84.539 195.052C84.772 194.737 84.9364 194.449 85.1145 194.175C85.3201 193.874 85.3475 193.709 85.4845 193.49L86.1149 192.202L88.6636 187.05C90.4038 183.638 92.0892 180.198 93.8706 176.8C97.3648 169.976 100.996 163.234 104.764 156.561L118.138 163.933Z" fill="#FF8B7B"/>
<path d="M156.602 117.659C156.437 118.453 156.711 119.207 157.232 119.33C157.753 119.454 158.301 118.919 158.465 118.124C158.63 117.33 158.356 116.576 157.835 116.453C157.314 116.329 156.766 116.864 156.602 117.659Z" fill="#0F264C"/>
<path d="M156.629 119.194C156.629 119.194 157.451 124.236 158.945 126.936C157.273 127.895 155.04 126.703 155.04 126.703L156.629 119.194Z" fill="#FF5652"/>
<path d="M158.698 112.835C158.603 112.835 158.507 112.808 158.424 112.753C158.356 112.712 156.917 111.753 155.012 112.534C154.766 112.63 154.492 112.52 154.396 112.273C154.3 112.027 154.41 111.753 154.656 111.657C157.054 110.67 158.89 111.931 158.973 111.986C159.192 112.136 159.233 112.438 159.096 112.643C159 112.767 158.849 112.835 158.698 112.835Z" fill="#0F264C"/>
<path d="M128.881 120.687C130.607 128.045 132.567 141.543 127.606 146.462C127.606 146.462 129.909 153.93 143.598 153.93C158.643 153.93 150.504 146.462 150.504 146.462C142.214 144.502 142.186 138.405 143.406 132.691L128.881 120.687Z" fill="#FF8B7B"/>
<path d="M125.744 149.025C124.579 146.654 123.277 143.955 125.703 143.105C128.375 142.173 143.119 141.214 148.298 142.968C153.464 144.722 152.204 149.518 152.204 149.518L125.744 149.025Z" fill="#9FC6FF"/>
<path d="M106.025 492.84C104.983 492.84 103.915 492.676 103.394 492.552C103.298 492.525 103.229 492.456 103.216 492.361C103.202 492.265 103.229 492.169 103.312 492.128C103.421 492.045 106.093 490.154 107.587 490.483C107.943 490.552 108.204 490.744 108.382 491.045C108.711 491.593 108.587 491.963 108.423 492.182C108.053 492.689 107.053 492.84 106.025 492.84ZM104.065 492.21C105.573 492.47 107.628 492.456 108.053 491.895C108.094 491.84 108.217 491.675 107.984 491.278C107.875 491.1 107.724 490.99 107.505 490.949C106.6 490.757 104.997 491.621 104.065 492.21Z" fill="white"/>
<path d="M103.449 492.566C103.408 492.566 103.367 492.552 103.326 492.525C103.257 492.484 103.216 492.402 103.216 492.306C103.216 492.182 103.353 489.277 104.477 488.318C104.778 488.058 105.121 487.962 105.491 488.003C106.08 488.071 106.231 488.441 106.272 488.647C106.491 489.784 104.573 491.963 103.573 492.525C103.531 492.552 103.49 492.566 103.449 492.566ZM105.327 488.483C105.135 488.483 104.957 488.551 104.792 488.688C104.066 489.305 103.819 491.004 103.737 491.853C104.724 491.072 105.943 489.428 105.82 488.757C105.806 488.688 105.779 488.537 105.45 488.496C105.395 488.483 105.354 488.483 105.327 488.483Z" fill="white"/>
<path d="M166.482 492.84C165.276 492.84 164.029 492.689 163.385 492.552C163.289 492.539 163.207 492.456 163.193 492.36C163.179 492.265 163.22 492.169 163.303 492.114C163.81 491.812 168.277 489.264 169.359 491.031C169.661 491.525 169.551 491.881 169.414 492.086C169.003 492.662 167.77 492.84 166.482 492.84ZM164.139 492.196C166.029 492.456 168.578 492.429 169.017 491.812C169.058 491.758 169.154 491.621 168.948 491.278C168.345 490.278 165.632 491.429 164.139 492.196Z" fill="white"/>
<path d="M163.426 492.566C163.385 492.566 163.33 492.552 163.289 492.525C163.22 492.484 163.179 492.402 163.179 492.32C163.179 492.21 163.357 489.497 164.591 488.442C164.974 488.113 165.413 487.976 165.906 488.031C166.577 488.099 166.769 488.442 166.81 488.716C167.002 489.88 164.714 492.004 163.508 492.552C163.494 492.552 163.453 492.566 163.426 492.566ZM165.728 488.483C165.426 488.483 165.152 488.579 164.906 488.798C164.097 489.497 163.796 491.127 163.7 491.908C164.906 491.168 166.468 489.483 166.345 488.784C166.331 488.729 166.303 488.538 165.851 488.496C165.824 488.483 165.769 488.483 165.728 488.483Z" fill="white"/>
<path d="M152.354 492.319H162.426L162.521 469.011H152.464L152.354 492.319Z" fill="#FF8B7B"/>
<path d="M91.9111 492.319H101.983L106.148 469.011H96.0768L91.9111 492.319Z" fill="#FF8B7B"/>
<path d="M102.654 491.155H91.3495C90.9384 491.155 90.5959 491.443 90.5136 491.84L88.8693 500.788C88.7049 501.72 89.4585 502.597 90.4177 502.583C94.3641 502.514 96.2688 502.281 101.243 502.281C104.299 502.281 110.616 502.597 114.85 502.597C118.988 502.597 119.468 498.417 117.727 498.034C109.903 496.334 106.888 493.991 104.326 491.771C103.846 491.374 103.257 491.155 102.654 491.155Z" fill="#14365B"/>
<path d="M162.315 491.155H151.326C150.915 491.155 150.572 491.443 150.49 491.84L148.846 500.788C148.681 501.72 149.407 502.597 150.367 502.583C154.327 502.514 160.054 502.281 165.029 502.281C170.852 502.281 175.909 502.597 182.732 502.597C186.871 502.597 187.857 498.417 186.103 498.034C178.156 496.307 171.729 496.129 164.754 491.936C164.015 491.484 163.179 491.155 162.315 491.155Z" fill="#14365B"/>
<path d="M108.409 148.737C99.0642 150.902 89.2256 176.622 89.2256 176.622L108.683 189.612C108.683 189.612 115.48 179.568 120.372 168.332C125.51 156.561 117.96 146.531 108.409 148.737Z" fill="#0F264C"/>
<path d="M115.795 165.139L107.752 188.995L108.67 189.612C108.67 189.612 112.342 184.172 116.248 176.827L115.795 165.139Z" fill="#0A1B35"/>
<path d="M171.209 193.709C171.14 204.946 170.455 218.922 168.783 236.27H114.932C114.247 228.007 117.878 187.68 108.409 148.737C108.409 148.737 117.563 146.887 126.346 146.462C133.211 146.133 143.159 145.914 149.23 146.462C157.232 147.189 164.823 149.258 164.823 149.258C164.823 149.258 169.428 154.245 170.825 177.636C171.086 182.254 171.236 187.571 171.209 193.709Z" fill="#0F264C"/>
<path d="M171.209 193.709C167.948 187.762 162.042 175.827 162.864 169.031L170.811 177.636C171.085 182.254 171.236 187.57 171.209 193.709Z" fill="#0A1B35"/>
<path d="M154.259 158.356C153.409 167.907 175.155 191.024 175.155 191.024L192.585 176.828C192.585 176.828 185.419 164.413 176.293 155.588C166.098 145.736 155.218 147.613 154.259 158.356Z" fill="#0F264C"/>
<path d="M162.522 469.025L162.481 481.042H152.409L152.45 469.025H162.522Z" fill="#EA7063"/>
<path d="M96.0766 469.025H106.148L103.997 481.042H93.9253L96.0766 469.025Z" fill="#EA7063"/>
<path d="M130.69 109.341C129.21 119.248 127.853 124.962 131.676 131.211C137.418 140.597 150.312 139.145 154.683 129.978C158.616 121.728 160.37 106.902 151.723 100.626C143.214 94.46 132.169 99.4341 130.69 109.341Z" fill="#FF8B7B"/>
<path d="M160.493 104.641C155.807 107.286 150.86 107.587 150.86 107.587C148.352 119.057 141.679 132.198 130.881 128.457C126.729 127.018 122.687 117.124 122.235 108.272C121.509 109.149 121.029 110.259 120.673 110.725C119.755 105.052 121.303 100.9 121.947 99.078C124.934 90.6097 126.921 96.2415 130.1 91.1029C132.197 87.7047 135.938 85.9507 142.447 85.7178C140.624 86.6633 140.281 88.198 142.981 87.965C145.68 87.7321 157.204 87.1154 163.919 91.6511C159.383 92.6788 162.151 99.9001 168.194 96.0359C166.111 99.6261 163.371 103.024 160.493 104.641Z" fill="#0F264C"/>
<path d="M143.146 115.48C143.146 118.125 144.214 120.701 145.557 122.455C147.585 125.086 149.942 123.784 150.504 120.865C150.997 118.234 150.545 113.699 147.969 112.109C145.42 110.534 143.132 112.466 143.146 115.48Z" fill="#FF8B7B"/>
<path d="M130.868 92.1717C129.457 91.9799 126.237 91.5551 124.167 88.0061C124.167 88.0061 123.989 96.0907 130.868 92.1717Z" fill="#0F264C"/>
<path d="M149.668 236.27C149.668 236.27 141.213 313.197 136.061 342.028C130.415 373.585 108.601 478.726 108.601 478.726H90.1567C90.1567 478.726 103.257 376.147 105.97 344.891C108.916 310.977 114.931 236.283 114.931 236.283H149.668V236.27Z" fill="#9FC6FF"/>
<path d="M111.273 471.916C111.355 471.916 109.642 479 109.642 479H88.896L89.033 472.683L111.273 471.916Z" fill="#318FFF"/>
<path d="M143.515 263.675C130.401 266.265 133.704 315.527 136.266 340.863C139.39 322.954 143.624 288.491 146.488 264.032C145.611 263.593 144.611 263.456 143.515 263.675Z" fill="#77B3FC"/>
<path d="M168.77 236.27C168.77 236.27 173.059 311.539 173.155 342.233C173.25 374.161 166.139 478.713 166.139 478.713H149.079C149.079 478.713 144.488 376.024 142.515 344.672C140.364 310.484 133.375 236.27 133.375 236.27H168.77V236.27Z" fill="#9FC6FF"/>
<path d="M172.895 226.596L168.112 226.98C166.454 227.117 165.331 228.747 165.81 230.337L167.783 236.983C168.496 239.353 171.387 240.285 173.319 238.736C175.224 237.202 177.663 233.516 178.444 230.227L172.895 226.596Z" fill="#FF8B7B"/>
<path d="M162.097 466.462C161.987 466.462 161.919 466.38 161.932 466.284C163.823 437.344 168.208 367.35 168.126 342.233C168.044 316.54 165.002 259.071 164.07 242.066C164.07 241.97 164.139 241.888 164.234 241.888C164.317 241.888 164.413 241.956 164.413 242.052C165.344 259.057 168.4 316.54 168.469 342.233C168.537 367.35 164.152 437.371 162.275 466.298C162.275 466.394 162.193 466.462 162.097 466.462Z" fill="#77B3FC"/>
<path d="M169.153 471.916C169.235 471.916 168.468 479 168.468 479H147.722L146.914 472.683L169.153 471.916Z" fill="#318FFF"/>
</g>
<defs>
<clipPath id="clip0">
<rect x="0.77832" width="571.267" height="505" fill="white"/>
</clipPath>
</defs>
</svg>
