<svg width="572" height="505" viewBox="0 0 572 505" fill="none" xmlns="http://www.w3.org/2000/svg">
<rect x="0.38916" width="571.267" height="505"/>
<path d="M214.886 147.17C197.3 141.013 204.343 91.522 162.074 118.142C152.499 124.175 140.863 163.745 148.902 172.932C160.123 185.758 235.626 154.434 214.886 147.17Z" fill="#263238"/>
<path d="M165.408 194.157C165.062 194.807 164.854 195.167 164.564 195.637L163.761 196.924C163.222 197.768 162.641 198.57 162.06 199.359C160.884 200.936 159.611 202.458 158.255 203.911C155.529 206.789 152.416 209.404 148.902 211.535C145.415 213.693 141.458 215.312 137.307 216.128C135.232 216.515 133.129 216.792 131.026 216.765C129.974 216.806 128.936 216.695 127.885 216.654L126.335 216.474L125.56 216.377C125.256 216.336 124.827 216.253 124.481 216.183C121.507 215.505 119.224 213.956 117.508 212.392C115.765 210.801 114.478 209.113 113.343 207.425C111.102 204.035 109.566 200.577 108.224 197.118C105.609 190.158 103.976 183.212 102.911 176.004L108.861 174.662C111.088 181.04 113.675 187.502 116.664 193.382C118.172 196.315 119.846 199.11 121.673 201.421C122.586 202.569 123.554 203.579 124.481 204.271C125.408 204.976 126.225 205.308 126.695 205.336L128.508 205.419C129.213 205.378 129.919 205.433 130.624 205.336C132.022 205.253 133.392 204.99 134.748 204.672C137.432 203.966 140.005 202.79 142.44 201.227C144.875 199.677 147.103 197.657 149.165 195.43C150.202 194.323 151.185 193.147 152.098 191.929C152.554 191.32 152.997 190.698 153.412 190.075L154.021 189.148L154.505 188.359L165.408 194.157Z" fill="#FF8B7B"/>
<path d="M168.756 179.781C156.345 179.837 146.494 191.293 146.494 191.293L161.658 211.77C161.658 211.77 173.931 200.231 175.231 193.686C176.601 186.893 176.227 179.74 168.756 179.781Z" fill="#263238"/>
<path d="M108.293 177.609L113.731 168.615L101.14 168.934C101.14 168.934 100.144 174.869 103.465 178.619L108.293 177.609Z" fill="#FF8B7B"/>
<path d="M113.218 158.086L103.921 160.065L101.14 168.934L113.716 168.616L113.218 158.086Z" fill="#FF8B7B"/>
<path d="M231.156 490.065L219.271 491.199L213.211 463.5L225.096 462.365L231.156 490.065Z" fill="#FF8B7B"/>
<path d="M339.048 454.202L330.041 462.213L308.609 443.936L317.602 435.925L339.048 454.202Z" fill="#FF8B7B"/>
<path d="M326.789 460.677L332.005 448.197C332.199 447.741 332.669 447.506 333.14 447.63L343.614 450.342C344.707 450.619 345.302 451.905 344.845 452.957C342.949 457.274 341.815 459.266 339.518 464.759C338.107 468.135 335.478 475.814 333.527 480.477C331.618 485.042 326.858 483.465 327.26 481.348C329.031 471.857 327.938 466.807 326.706 462.836C326.485 462.103 326.512 461.342 326.789 460.677Z" fill="#263238"/>
<path d="M217.777 487.602H232.069C232.595 487.602 233.052 487.962 233.204 488.474L236.317 499.778C236.635 500.954 235.777 502.061 234.574 502.047C229.579 501.964 227.144 501.673 220.848 501.673C216.988 501.673 206.985 502.075 201.644 502.075C196.428 502.075 195.335 496.789 197.493 496.319C207.179 494.174 212.768 491.213 215.757 488.391C216.296 487.879 217.016 487.602 217.777 487.602Z" fill="#263238"/>
<path opacity="0.2" d="M213.211 463.514L216.338 477.792H228.472L225.11 462.379L213.211 463.514Z" fill="black"/>
<path opacity="0.2" d="M317.616 435.925L308.609 443.936L319.664 453.358L328.671 445.347L317.616 435.925Z" fill="black"/>
<path d="M157.134 183.115C157.134 183.115 152.153 186.602 182.177 251.617C200.883 246.415 220.212 241.033 229.316 238.501C223.186 219.532 219.866 207.716 218.081 165.793C218.081 165.793 207.607 166.388 197.327 168.726C189.288 170.553 182.716 172.102 175.923 174.689C166.957 178.079 157.134 183.115 157.134 183.115Z" fill="#263238"/>
<path d="M188.487 145.219C189.054 152.483 191.227 165.475 197.314 168.726C197.314 168.726 199.459 184.222 187.518 198.321C171.151 189.826 175.91 174.689 175.91 174.689C183.077 170.718 181.292 165.073 178.47 160.092L188.487 145.219Z" fill="#FF8B7B"/>
<path opacity="0.2" d="M191.005 159.027L182.786 156.246C182.814 157.09 183.201 159.415 184.004 160.937C185.401 163.635 189.967 164.645 193.232 164.313C192.333 162.749 191.6 160.937 191.005 159.027Z" fill="black"/>
<path d="M164.647 137.623C167.829 149.148 168.922 154.102 176.075 158.847C186.84 166.001 200.316 159.581 200.648 147.336C200.952 136.309 195.708 119.318 183.298 117.077C171.067 114.863 161.478 126.084 164.647 137.623Z" fill="#FF8B7B"/>
<path d="M181.831 115.181C180.89 123.013 175.052 149.937 164.038 149.743C154.948 141.815 159.445 126.873 162.253 120.813C165.062 114.752 181.831 115.181 181.831 115.181Z" fill="#263238"/>
<path d="M177.195 120.73C182.73 123.677 193.619 124.963 191.875 120.467C190.132 115.97 190.644 112.248 183.145 112.331C175.66 112.414 177.195 120.73 177.195 120.73Z" fill="#263238"/>
<path d="M165.048 148.54C165.795 150.905 167.566 152.704 169.392 153.617C172.132 154.987 174.083 152.676 173.806 149.785C173.557 147.184 171.827 143.337 168.839 143.171C165.906 142.991 164.204 145.828 165.048 148.54Z" fill="#FF8B7B"/>
<path d="M182.177 251.631C182.177 251.631 179.451 346.863 187.089 382.809C195.03 420.194 210.513 473.642 210.513 473.642L233.093 472.549C233.093 472.549 222.163 404.739 219.52 375.836C215.867 335.988 216.711 242.015 216.711 242.015L182.177 251.631Z" fill="#407BFF"/>
<path opacity="0.4" d="M182.177 251.631C182.177 251.631 179.451 346.863 187.089 382.809C195.03 420.194 210.513 473.642 210.513 473.642L233.093 472.549C233.093 472.549 222.163 404.739 219.52 375.836C215.867 335.988 216.711 242.015 216.711 242.015L182.177 251.631Z" fill="#FAFAFA"/>
<path opacity="0.2" d="M216.628 277.836C213.114 269.023 210.028 264.166 209.641 272.952C208.838 291.534 212.076 312.772 217.14 323.301C216.822 307.556 216.697 291.479 216.628 277.836Z" fill="black"/>
<path d="M234.67 473.642L208.922 474.873L205.892 465.464L233.785 463.292L234.67 473.642Z" fill="#263238"/>
<path d="M194.629 248.158C194.629 248.158 223.546 325.943 243.027 368.89C258.773 403.577 314.545 452.058 314.545 452.058L327.219 441.349C327.219 441.349 286.901 386.088 276.012 362.567C241.187 287.244 250.277 255.339 229.316 238.514L194.629 248.158Z" fill="#407BFF"/>
<path opacity="0.4" d="M194.629 248.158C194.629 248.158 223.546 325.943 243.027 368.89C258.773 403.577 314.545 452.058 314.545 452.058L327.219 441.349C327.219 441.349 286.901 386.088 276.012 362.567C241.187 287.244 250.277 255.339 229.316 238.514L194.629 248.158Z" fill="#FAFAFA"/>
<path d="M328.257 441.224L314.089 453.732L306.88 448.516L323.58 434.279L328.257 441.224Z" fill="#263238"/>
<path d="M229.246 235.54L232.553 239.165C232.802 239.442 232.512 239.884 231.972 240.036L182.536 253.803C182.107 253.928 181.706 253.817 181.596 253.554L179.991 249.459C179.88 249.168 180.184 248.822 180.641 248.698L228.375 235.415C228.734 235.305 229.08 235.36 229.246 235.54Z" fill="#407BFF"/>
<path d="M224.321 242.665L225.594 242.306C225.843 242.236 226.009 242.043 225.94 241.891L223.809 236.578C223.754 236.425 223.491 236.356 223.228 236.425L221.955 236.785C221.706 236.854 221.54 237.048 221.609 237.2L223.74 242.513C223.809 242.665 224.072 242.734 224.321 242.665Z" fill="#263238"/>
<path d="M186.244 253.264L187.517 252.904C187.766 252.835 187.932 252.641 187.863 252.489L185.732 247.176C185.677 247.024 185.414 246.954 185.151 247.024L183.878 247.383C183.629 247.453 183.463 247.646 183.532 247.798L185.663 253.111C185.732 253.264 185.995 253.333 186.244 253.264Z" fill="#263238"/>
<path d="M205.283 247.964L206.556 247.605C206.805 247.535 206.971 247.342 206.902 247.189L204.771 241.876C204.716 241.724 204.453 241.655 204.19 241.724L202.917 242.084C202.668 242.153 202.502 242.347 202.571 242.499L204.702 247.812C204.771 247.964 205.034 248.033 205.283 247.964Z" fill="#263238"/>
<path d="M183.049 137.152C183.242 138.107 183.92 138.771 184.543 138.633C185.166 138.508 185.511 137.623 185.304 136.668C185.11 135.713 184.432 135.049 183.81 135.188C183.187 135.326 182.841 136.198 183.049 137.152Z" fill="#263238"/>
<path d="M193.8 134.884C193.993 135.838 194.671 136.503 195.294 136.364C195.916 136.24 196.262 135.354 196.055 134.4C195.861 133.445 195.183 132.781 194.561 132.919C193.938 133.057 193.592 133.943 193.8 134.884Z" fill="#263238"/>
<path d="M194.297 133.043L196.442 131.909C196.442 131.909 195.639 133.929 194.297 133.043Z" fill="#263238"/>
<path d="M191.295 137.125C191.295 137.125 193.772 140.875 195.958 142.479C194.948 143.918 192.706 143.835 192.706 143.835L191.295 137.125Z" fill="#FF5652"/>
<path d="M190.258 148.235C190.354 148.166 190.396 148.055 190.368 147.945C190.341 147.793 190.188 147.696 190.036 147.723C185.872 148.595 183.298 146.091 183.27 146.077C183.16 145.966 182.98 145.966 182.869 146.077C182.758 146.188 182.758 146.367 182.869 146.478C182.98 146.589 185.678 149.231 190.147 148.291C190.188 148.263 190.23 148.249 190.258 148.235Z" fill="#263238"/>
<path d="M179.285 134.275C179.368 134.22 179.437 134.15 179.479 134.054C180.558 131.757 182.647 131.439 182.661 131.439C182.979 131.397 183.187 131.107 183.145 130.788C183.104 130.47 182.813 130.263 182.495 130.304C182.385 130.318 179.783 130.705 178.441 133.569C178.303 133.86 178.427 134.192 178.718 134.33C178.912 134.413 179.133 134.386 179.285 134.275Z" fill="#263238"/>
<path d="M197.839 128.824C197.866 128.81 197.894 128.782 197.922 128.754C198.143 128.533 198.143 128.173 197.908 127.952C195.652 125.738 193.079 126.278 192.968 126.305C192.664 126.375 192.47 126.679 192.539 126.983C192.609 127.288 192.913 127.482 193.217 127.412C193.314 127.398 195.32 126.997 197.119 128.754C197.313 128.948 197.617 128.976 197.839 128.824Z" fill="#263238"/>
<path d="M226.535 176.668C227.6 177.9 228.928 179.352 230.173 180.681C231.446 182.037 232.761 183.351 234.103 184.652C236.773 187.253 239.499 189.785 242.363 192.123C248.091 196.786 254.151 201.006 260.612 203.939C266.7 206.692 274.102 207.882 281.546 208.408C285.282 208.684 289.073 208.781 292.878 208.712C296.669 208.684 300.557 208.491 304.265 208.214L305.399 214.205C297.499 216.267 289.599 217.332 281.408 217.692C277.326 217.802 273.189 217.733 269.011 217.221C264.832 216.723 260.571 215.851 256.379 214.233C252.38 212.697 248.589 210.815 245.005 208.671C241.408 206.54 238.005 204.174 234.767 201.628C231.529 199.082 228.416 196.412 225.469 193.576C224.003 192.151 222.564 190.698 221.152 189.204C219.713 187.682 218.427 186.229 216.988 184.458L226.535 176.668Z" fill="#FF8B7B"/>
<path d="M302.729 214.786L314.642 212.918L304.804 203.551C304.804 203.551 300.128 207.342 300.142 212.351L302.729 214.786Z" fill="#FF8B7B"/>
<path d="M321.062 203.427L312.774 198.75L304.818 203.551L314.642 212.918L321.062 203.427Z" fill="#FF8B7B"/>
<path d="M218.067 165.793C223.187 165.917 233.384 180.597 233.384 180.597L218.704 198.791C218.704 198.791 210.153 186.81 210.444 180.155C210.748 173.223 212.229 165.655 218.067 165.793Z" fill="#263238"/>
<path d="M324.521 467.222C324.383 467.18 324.245 467.111 324.106 467.028C323.691 466.779 323.594 466.433 323.58 466.198C323.539 464.662 327.122 462.199 327.538 461.923C327.634 461.854 327.759 461.854 327.856 461.923C327.953 461.978 328.008 462.103 327.98 462.213C327.717 463.791 327.067 466.544 325.684 467.194C325.31 467.346 324.923 467.36 324.521 467.222ZM327.288 462.781C325.877 463.804 324.134 465.368 324.148 466.17C324.148 466.267 324.175 466.406 324.383 466.53C324.77 466.765 325.116 466.807 325.434 466.655C326.195 466.309 326.86 464.884 327.288 462.781Z" fill="#407BFF"/>
<path d="M322.749 463.583C322.639 463.542 322.528 463.486 322.431 463.431C322.21 463.279 321.878 462.933 322.072 462.241C322.196 461.798 322.473 461.48 322.888 461.273C324.465 460.512 327.675 461.84 327.8 461.895C327.896 461.937 327.966 462.02 327.966 462.117C327.979 462.213 327.938 462.324 327.855 462.379C326.9 463.113 324.078 464.04 322.749 463.583ZM326.969 462.186C325.863 461.812 324.036 461.342 323.123 461.784C322.86 461.909 322.68 462.117 322.611 462.393C322.514 462.753 322.625 462.878 322.749 462.961C323.441 463.431 325.78 462.919 327.066 462.227C327.039 462.2 327.011 462.2 326.969 462.186Z" fill="#407BFF"/>
<path d="M211.44 489.968C210.333 489.968 209.309 489.802 208.645 489.304C208.203 488.958 207.954 488.501 207.926 487.934C207.898 487.505 208.106 487.27 208.286 487.159C209.586 486.288 214.443 488.488 215.411 488.944C215.522 488.999 215.591 489.11 215.577 489.235C215.563 489.359 215.48 489.456 215.356 489.484C214.304 489.705 212.81 489.968 211.44 489.968ZM209.157 487.505C208.908 487.505 208.714 487.547 208.59 487.63C208.535 487.671 208.465 487.727 208.479 487.906C208.507 488.308 208.659 488.626 208.977 488.861C209.821 489.498 211.786 489.581 214.346 489.11C212.602 488.322 210.306 487.505 209.157 487.505Z" fill="#407BFF"/>
<path d="M215.286 489.484C215.245 489.484 215.217 489.484 215.176 489.456C213.557 488.792 210.305 486.191 210.485 484.835C210.527 484.544 210.72 484.171 211.468 484.088C214.29 483.742 215.508 488.917 215.563 489.124C215.591 489.221 215.549 489.332 215.466 489.401C215.411 489.456 215.355 489.484 215.286 489.484ZM211.73 484.641C211.661 484.641 211.606 484.641 211.537 484.655C211.232 484.697 211.08 484.78 211.052 484.918C210.942 485.707 213.197 487.754 214.843 488.667C214.47 487.422 213.446 484.641 211.73 484.641Z" fill="#407BFF"/>
<path d="M183.547 135.299L185.691 134.164C185.691 134.164 184.903 136.198 183.547 135.299Z" fill="#263238"/>
<path d="M261.735 287.919C261.735 287.919 239.505 306.083 247.774 346.04C252.653 369.596 267.352 381.567 280.225 378.953C293.097 376.338 301.967 359.575 297.263 335.982C289.294 295.975 261.735 287.919 261.735 287.919Z" fill="#407BFF"/>
<path opacity="0.2" d="M261.735 287.919C261.735 287.919 239.505 306.083 247.774 346.04C252.653 369.596 267.352 381.567 280.225 378.953C293.097 376.338 301.967 359.575 297.263 335.982C289.294 295.975 261.735 287.919 261.735 287.919Z" fill="white"/>
<path d="M401.87 210.408C401.87 210.408 361.038 201.326 322.77 246.787C300.202 273.595 299.74 301.217 314.326 313.589C328.912 325.961 356.096 321.02 378.864 294.386C417.482 249.213 401.87 210.408 401.87 210.408Z" fill="#407BFF"/>
<path d="M348.266 30.0164C348.266 30.0164 339.146 32.5308 336.306 45.6661C334.63 53.4097 337.47 58.9891 341.698 59.9148C345.926 60.8405 350.83 56.975 352.557 49.2439C355.496 36.1211 348.266 30.0164 348.266 30.0164Z" fill="#407BFF"/>
<path d="M275.959 434.409C270.605 415.594 268.303 396.229 268.666 377.226C269.016 358.212 271.981 339.597 276.847 321.82C279.287 312.938 282.189 304.244 285.479 295.775C287.118 291.534 288.869 287.356 290.696 283.228C291.584 281.151 292.572 279.124 293.498 277.073L294.899 274.108L296.275 271.231C303.568 255.894 310.499 240.482 316.766 224.819C323.034 209.17 328.65 193.282 333.191 177.119C337.72 160.957 341.21 144.494 342.887 127.806C344.55 111.143 344.425 94.2294 341.335 77.6539C338.258 61.1159 332.078 44.9532 322.496 30.667C333.604 43.7898 341.823 59.5271 346.902 76.2903C352.006 93.066 354.133 110.73 354.333 128.306C354.521 145.907 352.807 163.496 349.98 180.822C347.127 198.161 343.149 215.262 338.483 232.125C333.817 248.988 328.463 265.614 322.796 282.052L321.732 285.129L321.195 286.668L320.707 288.119C320.081 290.058 319.381 291.985 318.805 293.936C317.579 297.827 316.441 301.717 315.415 305.633C313.351 313.451 311.675 321.32 310.436 329.176C307.972 344.901 307.321 360.663 308.772 375.95C310.211 391.225 313.776 406.037 319.418 419.735L275.959 434.409Z" fill="#407BFF"/>
<path opacity="0.2" d="M275.959 434.409C270.605 415.594 268.303 396.229 268.666 377.226C269.016 358.212 271.981 339.597 276.847 321.82C279.287 312.938 282.189 304.244 285.479 295.775C287.118 291.534 288.869 287.356 290.696 283.228C291.584 281.151 292.572 279.124 293.498 277.073L294.899 274.108L296.275 271.231C303.568 255.894 310.499 240.482 316.766 224.819C323.034 209.17 328.65 193.282 333.191 177.119C337.72 160.957 341.21 144.494 342.887 127.806C344.55 111.143 344.425 94.2294 341.335 77.6539C338.258 61.1159 332.078 44.9532 322.496 30.667C333.604 43.7898 341.823 59.5271 346.902 76.2903C352.006 93.066 354.133 110.73 354.333 128.306C354.521 145.907 352.807 163.496 349.98 180.822C347.127 198.161 343.149 215.262 338.483 232.125C333.817 248.988 328.463 265.614 322.796 282.052L321.732 285.129L321.195 286.668L320.707 288.119C320.081 290.058 319.381 291.985 318.805 293.936C317.579 297.827 316.441 301.717 315.415 305.633C313.351 313.451 311.675 321.32 310.436 329.176C307.972 344.901 307.321 360.663 308.772 375.95C310.211 391.225 313.776 406.037 319.418 419.735L275.959 434.409Z" fill="black"/>
<path d="M362.189 389.686L360.9 403.997L352.569 496.983C352.281 500.26 349.529 502.775 346.239 502.775H240.618C237.328 502.775 234.576 500.26 234.289 496.983L225.957 403.997L224.668 389.686H362.189Z" fill="#407BFF"/>
<path d="M360.675 441.42L357.688 474.8L358.934 474.911L361.921 441.532L360.675 441.42Z" fill="#407BFF"/>
<path d="M362.255 423.765L361.549 431.652L362.795 431.764L363.501 423.877L362.255 423.765Z" fill="#407BFF"/>
<path d="M272.681 95.0923C272.681 95.0923 249.088 126.504 273.144 176.869C287.33 206.567 310.786 217.663 327.024 209.982C343.262 202.301 349.567 177.132 335.606 147.321C311.925 96.7811 272.681 95.0923 272.681 95.0923Z" fill="#407BFF"/>
<path opacity="0.2" d="M272.681 95.0923C272.681 95.0923 249.088 126.504 273.144 176.869C287.33 206.567 310.786 217.663 327.024 209.982C343.262 202.301 349.567 177.132 335.606 147.321C311.925 96.7811 272.681 95.0923 272.681 95.0923Z" fill="black"/>
<path opacity="0.2" d="M362.189 389.686L360.901 403.997H225.97L224.681 389.686H362.189Z" fill="black"/>
<path d="M370.358 396.842H216.5C214.848 396.842 213.51 395.503 213.51 393.852V375.025C213.51 373.373 214.848 372.035 216.5 372.035H370.358C372.009 372.035 373.348 373.373 373.348 375.025V393.852C373.348 395.503 372.009 396.842 370.358 396.842Z" fill="#407BFF"/>
<path d="M429.978 166.259C452.082 149.625 456.515 118.222 439.881 96.1187C423.247 74.0155 391.844 69.5819 369.741 86.216C347.638 102.85 343.204 134.253 359.838 156.356C376.473 178.459 407.875 182.893 429.978 166.259Z" fill="#407BFF"/>
<path opacity="0.1" d="M440.05 138.677C444.816 120.012 435.859 99.9712 417.795 91.4645C397.316 81.7944 372.872 90.5638 363.19 111.042C356.672 124.828 358.524 140.415 366.667 152.075C357.248 139.965 354.833 123.102 361.826 108.278C371.746 87.2737 396.804 78.2792 417.808 88.1995C437.01 97.2566 446.18 118.974 440.05 138.677Z" fill="black"/>
<path d="M415.306 133.51L410.302 144.106C409.914 144.932 409.264 145.507 408.363 145.82C407.462 146.133 406.574 146.095 405.736 145.695L396.416 141.291L392.888 148.76C392.488 149.61 391.838 150.186 390.949 150.498C390.061 150.811 389.211 150.761 388.385 150.373C387.509 149.961 386.909 149.31 386.584 148.434C386.258 147.559 386.296 146.683 386.696 145.832L390.249 138.301L381.004 133.935C380.178 133.548 379.603 132.91 379.278 132.034C378.953 131.158 378.99 130.283 379.39 129.444C379.791 128.594 380.429 128.018 381.304 127.693C382.18 127.38 383.043 127.418 383.894 127.818L405.523 138.026L407.6 133.623L386.046 123.452C385.195 123.052 384.607 122.414 384.294 121.551C383.969 120.688 384.019 119.824 384.432 118.949L389.411 108.39C389.811 107.54 390.449 106.964 391.325 106.652C392.2 106.339 393.064 106.376 393.914 106.777L403.084 111.105L406.612 103.637C407 102.811 407.625 102.236 408.476 101.898C409.326 101.56 410.252 101.623 411.215 102.085C412.041 102.473 412.604 103.111 412.929 103.987C413.242 104.863 413.204 105.726 412.804 106.576L409.276 114.045L418.671 118.473C419.522 118.874 420.11 119.524 420.448 120.425C420.785 121.326 420.748 122.189 420.36 123.014C419.96 123.865 419.297 124.453 418.396 124.778C417.483 125.104 416.607 125.066 415.756 124.666L394.127 114.458L392.063 118.824L413.617 128.994C414.468 129.394 415.056 130.045 415.394 130.946C415.731 131.821 415.706 132.684 415.306 133.51Z" fill="#FAFAFA"/>
</svg>
