<svg width="572" height="505" viewBox="0 0 572 505" fill="none" xmlns="http://www.w3.org/2000/svg">
<rect width="571.267" height="505"/>
<path d="M492.987 371.835H78.0005V418.816H492.987V371.835Z" fill="#407BFF"/>
<path opacity="0.3" d="M493 371.835H403.981V418.816H493V371.835Z" fill="black"/>
<path d="M123.819 418.816H78V502.663H123.819V418.816Z" fill="#407BFF"/>
<path opacity="0.3" d="M78 418.816V423.506L110.457 433.301V502.663H123.819V418.816H78Z" fill="black"/>
<path d="M493 418.816H447.182V502.663H493V418.816Z" fill="#407BFF"/>
<path opacity="0.2" d="M493 418.816H447.182V502.663H493V418.816Z" fill="black"/>
<path opacity="0.3" d="M447.182 418.816V423.506L479.638 433.301V502.663H493V418.816H447.182Z" fill="black"/>
<path d="M403.982 418.816H358.163V502.663H403.982V418.816Z" fill="#407BFF"/>
<path opacity="0.3" d="M358.163 418.816V423.506L390.62 433.301V502.663H403.982V418.816H358.163Z" fill="black"/>
<path d="M212.837 418.816H167.019V502.663H212.837V418.816Z" fill="#407BFF"/>
<path opacity="0.2" d="M212.837 418.816H167.019V502.663H212.837V418.816Z" fill="black"/>
<path opacity="0.3" d="M167.019 418.816V423.506L199.475 433.301V502.663H212.837V418.816H167.019Z" fill="black"/>
<path d="M435.797 362.602H182.077C178.697 362.602 176.118 359.836 176.332 356.468L186.781 190.645C186.995 187.264 189.934 184.511 193.302 184.511H447.008C450.388 184.511 452.967 187.277 452.753 190.645L442.304 356.468C442.104 359.836 439.164 362.602 435.797 362.602Z" fill="#263238"/>
<path opacity="0.6" d="M435.797 362.602H182.077C178.697 362.602 176.118 359.836 176.332 356.468L186.781 190.645C186.995 187.264 189.934 184.511 193.302 184.511H447.008C450.388 184.511 452.967 187.277 452.753 190.645L442.304 356.468C442.104 359.836 439.164 362.602 435.797 362.602Z" fill="black"/>
<path d="M433.9 362.602H180.194C176.813 362.602 174.234 359.836 174.448 356.468L184.897 190.645C185.111 187.264 188.051 184.511 191.418 184.511H445.124C448.505 184.511 451.083 187.277 450.87 190.645L440.42 356.468C440.207 359.836 437.28 362.602 433.9 362.602Z" fill="#263238"/>
<path d="M433.579 364.686H131.689C128.776 364.686 126.237 366.383 125.075 368.828C124.407 370.231 125.436 371.848 127.012 371.848H438.269C439.846 371.848 440.874 370.231 440.206 368.828C439.031 366.383 436.492 364.686 433.579 364.686Z" fill="#263238"/>
<path opacity="0.6" d="M433.578 364.686H390.646C387.733 364.686 385.194 366.383 384.032 368.828C383.364 370.231 384.393 371.848 385.969 371.848H438.269C439.845 371.848 440.874 370.231 440.206 368.828C439.03 366.383 436.491 364.686 433.578 364.686Z" fill="black"/>
<path d="M406.961 369.924H395.884C395.349 369.924 394.908 369.483 394.908 368.948C394.908 368.414 395.349 367.973 395.884 367.973H406.961C407.495 367.973 407.936 368.414 407.936 368.948C407.923 369.483 407.495 369.924 406.961 369.924Z" fill="#407BFF"/>
<path opacity="0.7" d="M264.347 369.924H253.27C252.735 369.924 252.294 369.483 252.294 368.948C252.294 368.414 252.735 367.973 253.27 367.973H264.347C264.882 367.973 265.322 368.414 265.322 368.948C265.322 369.483 264.882 369.924 264.347 369.924Z" fill="white"/>
<path d="M418.425 369.924H411.183C410.742 369.924 410.381 369.563 410.381 369.122V368.775C410.381 368.334 410.742 367.973 411.183 367.973H418.425C418.866 367.973 419.227 368.334 419.227 368.775V369.122C419.227 369.563 418.866 369.924 418.425 369.924Z" fill="#407BFF"/>
<path d="M180.153 350.469L189.854 196.644C189.934 195.335 191.084 194.252 192.393 194.252H442.906C444.215 194.252 445.231 195.335 445.15 196.644L435.45 350.469C435.369 351.778 434.22 352.861 432.911 352.861H182.398C181.089 352.847 180.073 351.778 180.153 350.469Z" fill="white"/>
<path opacity="0.1" d="M322.673 189.509L239.227 348.117H177.668C176.345 348.117 175.343 347.048 175.423 345.725L185.124 191.901C185.204 190.591 186.353 189.509 187.663 189.509H322.673V189.509Z" fill="#407BFF"/>
<path opacity="0.1" d="M395.75 189.509L312.304 348.117H292.849L376.295 189.509H395.75Z" fill="#407BFF"/>
<path opacity="0.1" d="M440.42 191.901L430.719 345.725C430.639 347.048 429.49 348.117 428.18 348.117H333.35L416.796 189.509H438.175C439.498 189.509 440.5 190.591 440.42 191.901Z" fill="#407BFF"/>
<path opacity="0.4" d="M319.747 189.642C319.68 190.631 318.825 191.446 317.836 191.446C316.847 191.446 316.086 190.645 316.153 189.642C316.219 188.654 317.074 187.839 318.063 187.839C319.052 187.839 319.8 188.654 319.747 189.642Z" fill="white"/>
<path d="M278.351 152.777C271.042 161.141 266.82 186.77 272.245 199.397C277.657 212.011 214.855 224.638 266.673 245.122C318.491 265.606 359.914 241.862 344.921 220.629C329.929 199.397 346.538 164.041 329.181 155.115C313.48 147.058 292.996 136.007 278.351 152.777Z" fill="#263238"/>
<path d="M262.865 256.025C260.125 265.432 257.212 274.772 254.193 284.099C251.146 293.413 248.033 302.699 244.705 311.986L243.436 315.473L242.795 317.224L242.594 317.758L242.274 318.533C242.073 319.041 241.766 319.602 241.499 320.123C240.349 322.248 238.318 324.479 235.873 325.816C233.428 327.152 230.916 327.606 228.858 327.66C224.676 327.726 221.643 326.724 218.85 325.695C216.097 324.6 213.652 323.33 211.327 321.981C202.134 316.476 194.611 309.941 187.436 302.659L193.195 295.871C195.132 297.114 197.19 298.437 199.208 299.679C201.239 300.935 203.31 302.125 205.341 303.314C209.443 305.652 213.572 307.87 217.647 309.607C219.678 310.476 221.696 311.224 223.58 311.705C225.411 312.226 227.215 312.4 227.936 312.213C228.31 312.146 228.243 311.999 227.923 312.12C227.602 312.213 227.281 312.587 227.268 312.547C227.255 312.507 227.268 312.547 227.255 312.467C227.255 312.44 227.255 312.413 227.268 312.387L227.375 312.053L227.883 310.329L228.898 306.855L237.076 278.794C239.855 269.441 242.688 260.087 245.654 250.787L262.865 256.025Z" fill="#B65B52"/>
<path d="M192.795 295.631L177.321 289.858L183.481 306.254C183.481 306.254 194.425 307.83 198.674 302.071L195.213 297.435C194.612 296.62 193.77 295.992 192.795 295.631Z" fill="#B55B52"/>
<path d="M163.571 294.655L169.477 308.111L183.481 306.267L177.321 289.858L163.571 294.655Z" fill="#B55B52"/>
<path d="M251.533 231.827C244.438 233.63 239.467 262.853 239.467 262.853L259.029 276.162C259.029 276.162 277.79 246.685 272.325 238.882C266.632 230.744 261.889 229.194 251.533 231.827Z" fill="#407BFF"/>
<path opacity="0.5" d="M251.533 231.827C244.438 233.63 239.467 262.853 239.467 262.853L259.029 276.162C259.029 276.162 277.79 246.685 272.325 238.882C266.632 230.744 261.889 229.194 251.533 231.827Z" fill="white"/>
<path opacity="0.2" d="M250.892 242.45L266.098 245.964L267.555 260.822C263.586 269.013 259.043 276.149 259.043 276.149L247.178 268.091C247.672 261.263 248.955 247.073 250.892 242.45Z" fill="black"/>
<path d="M251.534 231.827C251.534 231.827 243.329 234.713 259.765 335.81C287.531 335.81 316.219 335.81 329.729 335.81C328.553 307.336 328.526 289.778 342.129 231.332C342.129 231.332 327.47 228.139 312.411 227.417C300.639 226.856 290.992 226.468 280.636 227.417C267.007 228.66 251.534 231.827 251.534 231.827Z" fill="#407BFF"/>
<path opacity="0.5" d="M251.534 231.827C251.534 231.827 243.329 234.713 259.765 335.81C287.531 335.81 316.219 335.81 329.729 335.81C328.553 307.336 328.526 289.778 342.129 231.332C342.129 231.332 327.47 228.139 312.411 227.417C300.639 226.856 290.992 226.468 280.636 227.417C267.007 228.66 251.534 231.827 251.534 231.827Z" fill="white"/>
<path opacity="0.2" d="M325.667 258.457L334.7 266.14C332.776 276.362 331.48 284.874 330.651 292.45C328.968 284.874 324.665 264.27 325.667 258.457Z" fill="black"/>
<path d="M309.272 191.634C307.268 201.856 305.263 220.589 312.425 227.404C312.425 227.404 305.784 242.717 288.039 242.717C270.295 242.717 280.65 227.404 280.65 227.404C292.048 224.678 291.754 216.22 289.777 208.283L309.272 191.634Z" fill="#B55B52"/>
<path d="M310.154 223.596C308.47 227.003 303.059 234.807 287.893 237.573C287.478 237.653 287.037 237.573 286.69 237.332C283.844 235.354 282.094 231.172 283.336 226.322C283.684 224.985 282.387 223.81 281.118 224.344C279.608 224.972 278.352 225.747 277.778 226.121C277.537 226.268 277.363 226.482 277.23 226.722C276.134 228.807 271.644 239.016 285.18 245.309C285.394 245.403 285.621 245.469 285.862 245.469C293.812 245.63 307.896 244.066 316.755 228.072C317.075 227.484 317.022 226.749 316.608 226.228C315.632 224.999 313.842 223.756 312.506 222.928C311.664 222.42 310.581 222.714 310.154 223.596Z" fill="#FAFAFA"/>
<path d="M313.868 265.659L295.829 265.138C295.027 265.112 294.426 264.443 294.493 263.655L294.667 261.437C294.733 260.649 295.428 260.007 296.23 260.034L314.269 260.555C315.07 260.582 315.672 261.25 315.605 262.038L315.431 264.256C315.364 265.045 314.67 265.686 313.868 265.659Z" fill="#FAFAFA"/>
<path opacity="0.2" d="M301.321 198.435L289.776 208.283C290.257 210.167 290.618 212.064 290.752 213.921C295.108 213.293 301.094 208.51 301.548 203.953C301.789 201.682 301.695 199.49 301.321 198.435Z" fill="black"/>
<path d="M322.741 172.325C319.52 189.121 318.505 196.297 308.831 203.873C294.279 215.284 274.37 207.641 272.513 190.231C270.842 174.557 276.401 149.73 293.839 145.133C311.022 140.604 325.974 155.529 322.741 172.325Z" fill="#B55B52"/>
<path d="M313.187 159.872C311.103 170.388 310.622 184.365 320.309 184.365C329.997 184.365 337.493 167.956 329.182 155.115C320.857 142.274 314.403 153.672 313.187 159.872Z" fill="#263238"/>
<path d="M329.836 161.168C329.836 172.606 315.432 166.954 309.045 162.01C302.658 157.079 302.31 157.614 290.565 157.6C278.82 157.574 276.388 156.785 272.9 151.146C269.413 145.508 269.72 141.793 277.591 142.982C285.447 144.171 278.847 136.154 284.713 131.705C290.579 127.255 297.487 128.377 305.504 138.533C313.495 148.688 329.836 141.352 329.836 161.168Z" fill="#263238"/>
<path d="M325.59 187.233C327.105 182.064 325.619 177.077 322.269 176.095C318.919 175.113 314.976 178.508 313.46 183.678C311.945 188.847 313.432 193.834 316.781 194.816C320.131 195.798 324.075 192.403 325.59 187.233Z" fill="white"/>
<path d="M298.809 200.172C295.749 200.172 292.702 199.557 289.803 198.328C289.549 198.221 289.429 197.927 289.536 197.673C289.643 197.419 289.936 197.299 290.19 197.406C295.669 199.731 301.722 199.758 307.214 197.5C312.585 195.281 316.741 191.139 318.919 185.808C322.968 174.33 327.016 159.992 322.286 151.106C320.442 147.659 317.342 145.347 313.066 144.252C312.799 144.185 312.639 143.904 312.705 143.637C312.772 143.37 313.04 143.209 313.32 143.276C317.877 144.452 321.19 146.924 323.168 150.625C328.085 159.858 323.983 174.463 319.854 186.142C317.569 191.74 313.213 196.083 307.601 198.408C304.755 199.584 301.775 200.172 298.809 200.172Z" fill="white"/>
<path opacity="0.6" d="M325.119 187.291C323.93 191.353 321.191 194.132 319.013 193.491C316.835 192.85 316.033 189.041 317.222 184.979C318.411 180.917 321.151 178.138 323.329 178.779C325.52 179.407 326.308 183.229 325.119 187.291Z" fill="#407BFF"/>
<path d="M290.538 199.718L285.314 198.716C284.392 198.542 283.79 197.647 283.964 196.725L284.017 196.431C284.191 195.509 285.086 194.907 286.008 195.081L291.233 196.083C292.155 196.257 292.756 197.152 292.583 198.074L292.529 198.368C292.355 199.29 291.46 199.892 290.538 199.718Z" fill="white"/>
<path d="M284.391 173.702C284.391 173.702 281.291 179.327 278.338 181.866C279.942 183.803 283.135 183.429 283.135 183.429L284.391 173.702Z" fill="#A02724"/>
<path d="M287.344 190.605C287.371 190.632 287.411 190.645 287.451 190.645C292.115 191.22 295.722 188.213 295.869 188.079C295.976 187.986 295.99 187.826 295.896 187.719C295.803 187.612 295.642 187.598 295.535 187.692C295.495 187.719 291.941 190.685 287.518 190.137C287.371 190.124 287.251 190.217 287.224 190.364C287.224 190.445 287.264 190.551 287.344 190.605Z" fill="#263238"/>
<path d="M302.63 167.087C302.791 167.154 302.964 167.154 303.125 167.061C303.365 166.914 303.445 166.593 303.285 166.339C300.96 162.651 297.352 162.544 297.205 162.544C296.925 162.544 296.684 162.771 296.671 163.052C296.671 163.333 296.898 163.573 297.179 163.586C297.312 163.586 300.386 163.693 302.403 166.887C302.457 166.98 302.537 167.047 302.63 167.087Z" fill="#263238"/>
<path d="M294.974 173.929C294.734 175.305 293.825 176.294 292.917 176.147C292.021 176 291.473 174.757 291.714 173.367C291.954 171.991 292.863 171.002 293.772 171.149C294.667 171.31 295.215 172.552 294.974 173.929Z" fill="#263238"/>
<path d="M279.394 171.283C279.154 172.659 278.245 173.648 277.336 173.501C276.441 173.354 275.893 172.112 276.134 170.722C276.374 169.346 277.283 168.357 278.192 168.504C279.087 168.651 279.635 169.893 279.394 171.283Z" fill="#263238"/>
<path d="M278.579 168.651L275.425 167.127C275.425 167.127 276.681 170 278.579 168.651Z" fill="#263238"/>
<path d="M294.159 171.296L291.005 169.773C291.005 169.786 292.261 172.659 294.159 171.296Z" fill="#263238"/>
<path d="M274.102 161.97C274.276 162.05 274.477 162.036 274.637 161.903C277.63 159.604 280.556 160.58 280.677 160.62C280.944 160.714 281.238 160.567 281.345 160.299C281.438 160.032 281.291 159.725 281.024 159.631C280.877 159.578 277.456 158.415 274.009 161.074C273.782 161.248 273.742 161.582 273.915 161.809C273.969 161.889 274.036 161.943 274.102 161.97Z" fill="#263238"/>
<path d="M257.106 352.847C257.106 352.847 256.919 343.267 259.752 335.797C265.858 335.797 329.716 335.797 329.716 335.797C329.716 335.797 336.009 345.952 337.639 352.847C329.782 352.847 257.106 352.847 257.106 352.847Z" fill="#407BFF"/>
<path d="M330.785 331.708L331.346 337.975C331.586 338.456 331.012 338.951 330.21 338.951H259.431C258.803 338.951 258.282 338.643 258.242 338.243L257.614 331.976C257.574 331.548 258.122 331.174 258.803 331.174H329.662C330.157 331.174 330.624 331.388 330.785 331.708Z" fill="#407BFF"/>
<path opacity="0.3" d="M330.785 331.708L331.346 337.975C331.586 338.456 331.012 338.951 330.21 338.951H259.431C258.803 338.951 258.282 338.643 258.242 338.243L257.614 331.976C257.574 331.548 258.122 331.174 258.803 331.174H329.662C330.157 331.174 330.624 331.388 330.785 331.708Z" fill="#FAFAFA"/>
<path d="M321.257 339.619H323.155C323.529 339.619 323.823 339.418 323.796 339.191L322.901 331.054C322.874 330.813 322.54 330.626 322.166 330.626H320.269C319.894 330.626 319.6 330.826 319.627 331.054L320.522 339.191C320.549 339.432 320.883 339.619 321.257 339.619Z" fill="#407BFF"/>
<path d="M264.749 339.619H266.646C267.021 339.619 267.315 339.418 267.288 339.191L266.393 331.054C266.366 330.813 266.032 330.626 265.658 330.626H263.76C263.386 330.626 263.092 330.826 263.119 331.054L264.014 339.191C264.041 339.432 264.375 339.619 264.749 339.619Z" fill="#407BFF"/>
<path d="M293.01 339.619H294.908C295.282 339.619 295.576 339.418 295.549 339.191L294.654 331.054C294.627 330.813 294.293 330.626 293.919 330.626H292.022C291.647 330.626 291.353 330.826 291.38 331.054L292.275 339.191C292.302 339.432 292.623 339.619 293.01 339.619Z" fill="#407BFF"/>
<path d="M348.116 251.068C351.189 261.049 354.142 271.098 356.975 281.146L361.237 296.205L363.362 303.688L363.896 305.532L364.163 306.454L364.23 306.668L364.244 306.721C364.257 306.775 364.244 306.761 364.244 306.775L364.03 306.441C363.856 306.2 363.562 305.772 362.8 305.184C362.079 304.597 360.622 303.955 359.219 303.915C357.83 303.862 356.881 304.236 356.387 304.476C355.425 304.997 355.518 305.118 355.598 305.024C355.719 304.944 355.959 304.69 356.226 304.369C356.761 303.728 357.362 302.833 357.95 301.884C359.139 299.973 360.288 297.795 361.397 295.577C363.656 291.141 365.713 286.437 367.785 281.721C369.829 276.99 371.82 272.193 373.784 267.383C375.815 262.599 377.713 257.709 379.677 252.925L388.215 255.477C386.01 265.9 383.405 276.122 380.225 286.331C378.648 291.448 376.898 296.512 374.88 301.644C373.838 304.209 372.729 306.775 371.352 309.434C370.657 310.77 369.896 312.133 368.894 313.603C368.386 314.338 367.811 315.113 367.023 315.981C366.194 316.823 365.286 317.838 363.148 318.934C362.066 319.442 360.462 320.003 358.418 319.923C356.36 319.869 354.275 318.947 353.033 317.959C351.75 316.97 351.042 316.035 350.507 315.246C349.973 314.444 349.666 313.803 349.372 313.175C349.251 312.881 349.104 312.574 349.011 312.306L348.77 311.652L348.423 310.703L347.728 308.819C346.819 306.307 345.897 303.822 345.056 301.323C343.345 296.325 341.635 291.341 340.031 286.331C336.758 276.322 333.711 266.287 330.878 256.146L348.116 251.068Z" fill="#B65B52"/>
<path d="M342.129 231.332C349.145 233.47 359.874 260.983 359.874 260.983L332.682 280.425C332.682 280.425 320.456 256.894 323.396 247.834C326.469 238.401 334.139 228.9 342.129 231.332Z" fill="#407BFF"/>
<path opacity="0.5" d="M342.129 231.332C349.145 233.47 359.874 260.983 359.874 260.983L332.682 280.425C332.682 280.425 320.456 256.894 323.396 247.834C326.469 238.401 334.139 228.9 342.129 231.332Z" fill="white"/>
<path d="M379.971 256.546L376.243 240.111L391.743 248.289C391.743 248.289 391.944 259.352 385.69 262.84L379.971 256.546Z" fill="#B55B52"/>
<path d="M382.737 227.07L392.625 234.085L391.743 248.289L376.243 240.111L382.737 227.07Z" fill="#B55B52"/>
<path d="M105.125 144.359H213.358C222.177 144.359 228.952 151.574 228.417 160.393L225.424 209.392C224.89 218.211 217.233 225.426 208.414 225.426H195.881L200.998 242.249L176.506 225.426H100.181C91.3624 225.426 84.5879 218.211 85.1223 209.392L88.1155 160.393C88.6499 151.574 96.3064 144.359 105.125 144.359Z" fill="#407BFF"/>
<path d="M203.43 170.014H111.886C110.229 170.014 108.947 168.651 109.054 166.994C109.16 165.337 110.604 163.974 112.26 163.974H203.804C205.461 163.974 206.744 165.337 206.637 166.994C206.543 168.664 205.1 170.014 203.43 170.014Z" fill="white"/>
<path d="M149.259 187.906H110.803C109.146 187.906 107.864 186.543 107.971 184.886C108.077 183.229 109.521 181.866 111.177 181.866H149.634C151.291 181.866 152.573 183.229 152.466 184.886C152.359 186.543 150.916 187.906 149.259 187.906Z" fill="white"/>
<path d="M182.117 205.798H109.708C108.051 205.798 106.768 204.435 106.875 202.778C106.982 201.121 108.425 199.758 110.082 199.758H182.491C184.148 199.758 185.431 201.121 185.324 202.778C185.217 204.435 183.788 205.798 182.117 205.798Z" fill="white"/>
<path d="M177.414 187.906H162.288C160.631 187.906 159.349 186.543 159.455 184.886C159.562 183.229 161.005 181.866 162.662 181.866H177.788C179.445 181.866 180.728 183.229 180.621 184.886C180.514 186.543 179.071 187.906 177.414 187.906Z" fill="white"/>
<path d="M255.823 56.3025H196.816C189.948 56.3025 184.002 61.9146 183.575 68.7827L181.236 106.905C180.822 113.773 186.087 119.385 192.955 119.385H202.709L197.124 132.466L217.782 119.385H251.962C258.83 119.385 264.776 113.773 265.204 106.905L267.542 68.7827C267.956 61.9146 262.692 56.3025 255.823 56.3025Z" fill="#407BFF"/>
<g opacity="0.5">
<path opacity="0.5" d="M255.823 56.3025H196.816C189.948 56.3025 184.002 61.9146 183.575 68.7827L181.236 106.905C180.822 113.773 186.087 119.385 192.955 119.385H202.709L197.124 132.466L217.782 119.385H251.962C258.83 119.385 264.776 113.773 265.204 106.905L267.542 68.7827C267.956 61.9146 262.692 56.3025 255.823 56.3025Z" fill="#FAFAFA"/>
</g>
<path d="M227.375 94.0769C227.014 95.8006 225.384 97.0299 223.634 97.0299H220.146C220.186 96.0412 220.213 95.4399 220.226 95.2127C220.36 92.9812 220.841 91.1373 221.67 89.6942C222.498 88.2511 224.075 86.6342 226.4 84.8304C228.725 83.0265 230.128 81.8506 230.595 81.2894C231.317 80.4075 231.705 79.4321 231.771 78.3631C231.865 76.8799 231.344 75.6239 230.235 74.5683C229.112 73.5127 227.562 72.9915 225.558 72.9915C223.634 72.9915 221.977 73.5394 220.614 74.6351C219.826 75.2765 219.158 76.1049 218.61 77.1338C217.835 78.5903 216.311 79.4989 214.735 79.2984C212.289 78.9911 210.98 76.3187 212.276 74.1273C213.038 72.8312 214.053 71.6553 215.336 70.573C218.022 68.3148 221.442 67.1924 225.585 67.1924C229.954 67.1924 233.348 68.3282 235.793 70.6131C238.239 72.898 239.361 75.5437 239.174 78.5769C239.067 80.2472 238.506 81.8372 237.464 83.3338C236.421 84.8304 234.27 86.8614 231.023 89.4403C229.339 90.7765 228.27 91.8455 227.843 92.6605C227.656 93.0347 227.495 93.489 227.375 94.0769ZM219.745 103.671L219.772 103.257C219.892 101.279 221.603 99.6623 223.58 99.6623H224.008C225.986 99.6623 227.495 101.266 227.375 103.257L227.348 103.671C227.228 105.649 225.518 107.265 223.54 107.265H223.113C221.135 107.265 219.625 105.649 219.745 103.671Z" fill="white"/>
</svg>
