<svg width="572" height="505" viewBox="0 0 572 505" fill="none" xmlns="http://www.w3.org/2000/svg">
<rect x="0.166992" width="571.267" height="505"/>
<path d="M146.686 489.702H157.076L157.523 465.635H147.133L146.686 489.702Z" fill="#B55B52"/>
<path d="M84.3164 489.702H94.6925L99.3352 465.635H88.9451L84.3164 489.702Z" fill="#B55B52"/>
<path d="M95.4058 488.499H83.7291C83.3096 488.499 82.946 488.793 82.8621 489.212L81.0302 498.442C80.8344 499.393 81.6175 500.302 82.5964 500.288C86.6658 500.218 88.6375 499.98 93.7696 499.98C96.93 499.98 103.447 500.302 107.796 500.302C112.061 500.302 112.62 495.995 110.83 495.603C102.789 493.855 99.7128 491.436 97.0838 489.128C96.6363 488.723 96.035 488.499 95.4058 488.499Z" fill="#263238"/>
<path d="M156.977 488.499H145.636C145.217 488.499 144.853 488.793 144.769 489.212L142.937 498.442C142.742 499.393 143.497 500.302 144.476 500.288C148.573 500.218 154.474 499.98 159.62 499.98C165.633 499.98 166.263 500.302 173.311 500.302C177.576 500.302 178.652 495.995 176.863 495.603C168.696 493.827 166.626 493.631 159.494 489.31C158.725 488.835 157.872 488.499 156.977 488.499Z" fill="#263238"/>
<path d="M154.277 161.106L168.457 156.561C168.457 156.561 183.112 190.486 188.007 192.598C194.677 195.465 204.018 204.526 210.633 210.05C210.843 211.798 210.032 216.399 208.997 217.615C197.026 214.762 182.133 207.966 177.239 203.449C166.108 193.129 154.277 161.106 154.277 161.106Z" fill="#B55B52"/>
<path d="M150.964 153.303C146.978 162.392 162.976 191.255 162.976 191.255L184.176 181.439C184.176 181.439 180.149 167.343 173.674 156.072C167.004 144.507 155.341 143.318 150.964 153.303Z" fill="#407BFF"/>
<path opacity="0.2" d="M170.905 174.978C166.277 168.587 158.767 166.783 152.083 166.448C155.551 177.873 162.991 191.255 162.991 191.255L175.087 185.648C174.695 181.788 173.297 178.278 170.905 174.978Z" fill="black"/>
<path d="M209.222 209.043L221.57 211.015L218.367 224.062C218.367 224.062 212.13 221.6 206.467 216.65L209.222 209.043Z" fill="#B55B52"/>
<path d="M232.281 216.538L227.764 223.726L218.381 224.062L221.569 211.015L232.281 216.538Z" fill="#B55B52"/>
<path opacity="0.2" d="M157.524 465.649L157.287 478.039H146.896L147.12 465.649H157.524Z" fill="black"/>
<path opacity="0.2" d="M88.9453 465.649H99.3354L96.9441 478.039H86.54L88.9453 465.649Z" fill="black"/>
<path d="M164.542 147.402C164.542 147.402 176.037 179.984 167.353 241.528C150.614 241.528 119.933 241.528 111.78 241.528C111.193 232.998 115.528 187.06 106.312 146.87C106.312 146.87 115.794 144.954 124.855 144.521C131.945 144.185 142.223 143.947 148.474 144.521C156.739 145.276 164.542 147.402 164.542 147.402Z" fill="#407BFF"/>
<path opacity="0.2" d="M139.511 185.732H123.457L123.094 175.621H139.147L139.511 185.732Z" fill="black"/>
<path d="M139.889 185.326H123.835L123.094 175.621H139.147L139.889 185.326Z" fill="white"/>
<path d="M129.316 181.62H124.939L124.59 177.229H128.981L129.316 181.62Z" fill="#407BFF"/>
<path d="M138.239 179.355H130.352L130.282 178.488H138.169L138.239 179.355Z" fill="#E0E0E0"/>
<path d="M136.715 181.061H130.492L130.422 180.18H136.645L136.715 181.061Z" fill="#E0E0E0"/>
<path d="M129.47 183.564H125.079L125.023 182.683H129.4L129.47 183.564Z" fill="#E0E0E0"/>
<path d="M130.672 183.564H138.559L138.489 182.683H130.616L130.672 183.564Z" fill="#E0E0E0"/>
<path d="M131.274 177.425H131.232C130.771 177.425 130.365 177.048 130.323 176.586L130.169 174.656C130.127 174.195 130.477 173.817 130.953 173.817H130.994C131.456 173.817 131.861 174.195 131.903 174.656L132.057 176.586C132.099 177.048 131.75 177.425 131.274 177.425Z" fill="#263238"/>
<path opacity="0.2" d="M118.633 156.799C119.724 163.413 118.018 179.243 112.173 197.52C111.809 183.452 110.564 167.133 107.194 150.87V150.786C110.844 150.422 117.598 150.59 118.633 156.799Z" fill="black"/>
<path d="M127.415 122.426C129.093 130.019 130.058 139.445 124.87 144.521C124.87 144.521 128.114 152.226 142.238 152.226C155.145 152.226 148.489 144.521 148.489 144.521C139.959 142.493 140.155 132.019 141.483 126.104L127.415 122.426Z" fill="#B55B52"/>
<path d="M142.224 150.87L146.308 155.386C146.322 155.4 146.322 155.4 146.308 155.414L145.273 158.575C145.105 159.092 144.63 159.456 144.084 159.484L141.343 159.61C140.868 159.638 140.434 159.414 140.169 159.022L137.945 155.75L142.224 150.87Z" fill="#263238"/>
<path d="M142.225 150.87C139.722 154.659 137.54 159.624 137.54 159.624C137.54 159.624 120.606 153.638 121.207 144.493C121.207 144.493 124.941 142.661 126.507 141.458C126.507 141.444 127.248 147.206 142.225 150.87Z" fill="white"/>
<path d="M142.225 150.869C145.511 154.533 147.497 158.98 147.497 158.98C147.497 158.98 153.761 153.554 151.132 144.521C151.132 144.521 148.853 143.57 146.574 143.08C146.56 143.08 147.748 148.912 142.225 150.869Z" fill="white"/>
<path d="M143.748 157.903C144.167 157.736 151.103 193.171 152.096 201.855C154.124 213.42 148.67 226.187 148.67 226.159C148.642 226.145 144.713 216.245 143.678 201.24C142.881 186.473 142.531 166.392 141.175 157.917C141.72 157.931 143.216 157.917 143.748 157.903Z" fill="#263238"/>
<path opacity="0.2" d="M141.482 126.118C140.685 129.572 140.308 134.606 141.846 138.592C140.587 138.41 139.301 138.018 138.028 137.431C133.19 135.179 130.757 131.628 128.17 126.37C127.946 125.027 127.694 123.699 127.4 122.426L141.482 126.118Z" fill="black"/>
<path d="M144.419 99.3945L148.265 111.742C152.642 106.778 149.034 100.094 144.419 99.3945Z" fill="#263238"/>
<path d="M121.025 113.168C124.031 123.125 125.29 129.11 131.555 133.193C140.98 139.346 152.195 132.033 152.195 121.447C152.195 111.91 147.273 97.2126 136.561 95.3248C125.989 93.4509 118.018 103.198 121.025 113.168Z" fill="#B55B52"/>
<path d="M125.065 120.692C127.862 118.86 129.023 109.449 126.464 106.233C135.441 105.813 139.86 102.779 140.098 101.156C143.244 102.555 151.117 103.086 150.125 99.1147C149.132 95.1572 144.992 92.8779 143.133 92.8779C140.042 89.6196 132.295 86.8787 126.813 91.3116C117.262 91.2557 112.186 99.0028 114.871 102.037C109.221 105.477 110.676 112.945 114.871 114.973C112.298 118.818 123.373 127.418 125.065 120.692Z" fill="#263238"/>
<path d="M119.15 125.279C121.122 127.293 123.793 128.229 126.072 128.243C129.498 128.257 130.225 124.957 128.463 122.174C126.869 119.671 123.163 116.651 120.115 117.965C117.122 119.266 116.899 122.971 119.15 125.279Z" fill="#B55B52"/>
<path d="M130.828 241.528C130.828 241.528 131.933 254.589 133.331 272.293C134.939 292.36 136.911 318.398 138.086 338.255C138.086 338.353 138.1 338.437 138.1 338.521C138.324 342.296 138.519 345.82 138.687 349.051C140.267 381.424 143.512 475.634 143.512 475.634H161.103C161.103 475.634 169.969 379.494 170.333 346.548C170.683 314.874 167.354 241.514 167.354 241.514H130.828V241.528Z" fill="#263238"/>
<path d="M142.21 470.25C142.126 470.25 142.35 475.997 142.35 475.997H162.641L163.34 469.537L142.21 470.25Z" fill="#407BFF"/>
<path opacity="0.2" d="M133.344 272.292C134.952 292.36 136.924 318.398 138.098 338.255C138.098 338.353 138.112 338.437 138.112 338.521C142.419 319.698 144.167 296.289 143.552 257.749L133.344 272.292Z" fill="black"/>
<path d="M147.636 241.528C147.636 241.528 137.792 316.594 132.044 346.338C125.751 378.907 101.713 475.648 101.713 475.648H82.6807C82.6807 475.648 97.6995 381.549 100.944 349.302C104.482 314.3 111.767 241.542 111.767 241.542H147.636V241.528Z" fill="#263238"/>
<path d="M82.5689 470.683C82.485 470.683 81.7578 475.997 81.7578 475.997H102.678L104.384 469.886L82.5689 470.683Z" fill="#407BFF"/>
<path d="M136.813 112.693C137.009 113.518 137.596 114.091 138.127 113.966C138.659 113.854 138.924 113.085 138.743 112.274C138.547 111.448 137.96 110.875 137.428 111.001C136.897 111.113 136.631 111.882 136.813 112.693Z" fill="#263238"/>
<path d="M146 110.708C146.196 111.533 146.783 112.106 147.315 111.98C147.846 111.868 148.112 111.099 147.93 110.288C147.734 109.463 147.147 108.89 146.615 109.016C146.084 109.127 145.804 109.883 146 110.708Z" fill="#263238"/>
<path d="M143.176 111.742C143.176 111.742 146.14 116.077 148.727 117.923C147.609 119.587 145.022 119.503 145.022 119.503L143.176 111.742Z" fill="#A02724"/>
<path d="M143.483 122.706C143.609 122.678 143.693 122.538 143.651 122.412C143.609 122.286 143.483 122.202 143.343 122.23C139.805 123.111 137.484 121.028 137.456 121C137.358 120.902 137.204 120.916 137.106 121.014C137.022 121.112 137.022 121.265 137.12 121.363C137.246 121.447 139.693 123.643 143.483 122.706Z" fill="#263238"/>
<path d="M133.344 110.302C133.484 110.274 133.61 110.176 133.68 110.022C134.561 108.023 136.337 107.743 136.35 107.743C136.602 107.715 136.798 107.449 136.756 107.183C136.714 106.918 136.462 106.722 136.197 106.764C136.099 106.778 133.875 107.128 132.785 109.603C132.673 109.854 132.785 110.148 133.036 110.26C133.134 110.316 133.246 110.33 133.344 110.302Z" fill="#263238"/>
<path d="M149.342 106.512C149.412 106.498 149.482 106.456 149.537 106.4C149.733 106.218 149.747 105.911 149.565 105.701C147.72 103.659 145.482 103.981 145.384 103.995C145.119 104.023 144.937 104.289 144.979 104.554C145.021 104.82 145.272 105.002 145.538 104.974C145.608 104.96 147.356 104.736 148.838 106.372C148.978 106.512 149.174 106.568 149.342 106.512Z" fill="#263238"/>
<path d="M100.063 158.672L114.088 164.462C114.088 164.462 103.768 194.248 103.013 198.988C108.677 201.086 114.9 209.518 122.451 215.028C122.255 216.734 118.983 220.929 117.668 221.838C106.397 216.37 89.1271 208.805 88.26 202.33C86.2743 187.577 100.063 158.672 100.063 158.672Z" fill="#B55B52"/>
<path d="M119.038 214.413L130.729 214.455L127.386 225.963C127.386 225.963 120.157 225.53 115.892 220.23L119.038 214.413Z" fill="#B55B52"/>
<path d="M137.749 216.678L134.197 226.956L127.4 225.977L130.743 214.455L137.749 216.678Z" fill="#B55B52"/>
<path d="M106.326 146.87C96.5375 148.296 86.1055 182.361 86.1055 182.361L108.662 190.906C108.662 190.906 115.724 177.831 119.919 165.79C124.31 153.191 116.828 145.332 106.326 146.87Z" fill="#407BFF"/>
<path d="M98.8872 490.303C99.6843 490.303 100.411 490.163 100.873 489.772C101.237 489.464 101.404 489.016 101.348 488.471C101.306 488.065 101.097 487.87 100.915 487.772C99.7682 487.184 96.454 489.24 96.0764 489.478C95.9925 489.534 95.9506 489.632 95.9646 489.73C95.9785 489.827 96.0625 489.911 96.1603 489.925C96.8875 490.107 97.9223 490.303 98.8872 490.303ZM100.384 488.163C100.509 488.163 100.621 488.177 100.705 488.219C100.775 488.247 100.845 488.317 100.873 488.513C100.901 488.905 100.803 489.198 100.565 489.408C100.006 489.883 98.6495 489.953 96.8875 489.59C98.0202 488.905 99.5864 488.163 100.384 488.163Z" fill="#407BFF"/>
<path d="M96.2156 489.94C96.2575 489.94 96.2995 489.926 96.3275 489.912C97.3902 489.324 99.4179 487.045 99.1662 485.898C99.1243 485.688 98.9564 485.325 98.3691 485.255C97.9776 485.213 97.642 485.311 97.3343 485.577C96.1457 486.569 95.9779 489.562 95.9639 489.688C95.9639 489.772 96.0058 489.87 96.0757 489.912C96.1177 489.926 96.1736 489.94 96.2156 489.94ZM98.2153 485.73C98.2572 485.73 98.2852 485.73 98.3272 485.744C98.6488 485.786 98.6768 485.926 98.6908 485.996C98.8446 486.681 97.558 488.401 96.5092 489.212C96.6071 488.331 96.9008 486.583 97.6559 485.954C97.8237 485.8 98.0055 485.73 98.2153 485.73Z" fill="#407BFF"/>
<path d="M161.341 490.303C162.376 490.303 163.327 490.149 163.844 489.66C164.18 489.352 164.32 488.947 164.278 488.457C164.25 488.163 164.096 487.94 163.858 487.8C162.586 487.087 158.46 489.212 157.985 489.464C157.887 489.506 157.845 489.618 157.859 489.716C157.873 489.814 157.957 489.897 158.055 489.925C158.95 490.107 160.194 490.303 161.341 490.303ZM163.173 488.163C163.369 488.163 163.523 488.191 163.634 488.247C163.732 488.303 163.788 488.387 163.802 488.513C163.83 488.849 163.746 489.1 163.523 489.31C162.893 489.883 161.187 489.967 158.894 489.59C160.306 488.905 162.194 488.163 163.173 488.163Z" fill="#407BFF"/>
<path d="M158.11 489.94C158.138 489.94 158.18 489.926 158.208 489.912C159.453 489.352 161.872 487.101 161.662 485.926C161.606 485.647 161.41 485.311 160.725 485.241C160.236 485.185 159.76 485.325 159.369 485.66C158.068 486.751 157.858 489.548 157.858 489.66C157.858 489.744 157.886 489.828 157.97 489.884C158.012 489.926 158.068 489.94 158.11 489.94ZM160.543 485.73C160.585 485.73 160.641 485.73 160.697 485.744C161.145 485.786 161.173 485.968 161.187 486.024C161.312 486.723 159.676 488.499 158.418 489.268C158.53 488.457 158.865 486.779 159.704 486.066C159.956 485.842 160.236 485.73 160.543 485.73Z" fill="#407BFF"/>
<path d="M340.462 116.092H333.932V117.49H340.462V116.092Z" fill="#407BFF"/>
<path d="M328.115 116.092H301.195V117.49H328.115V116.092Z" fill="#407BFF"/>
<path d="M385.519 366.279H216.438C208.859 366.279 202.231 360.07 201.713 352.491L186.736 134.774C186.219 127.194 191.994 120.986 199.574 120.986H368.64C376.219 120.986 382.848 127.194 383.365 134.774L398.342 352.491C398.874 360.07 393.098 366.279 385.519 366.279Z" fill="#407BFF"/>
<path d="M216.117 361.679C211.055 361.679 206.65 357.553 206.301 352.491L191.324 134.774C190.974 129.712 194.82 125.587 199.882 125.587H368.963C374.025 125.587 378.43 129.712 378.779 134.774L393.756 352.491C394.106 357.553 390.26 361.679 385.198 361.679H216.117Z" fill="white"/>
<g opacity="0.2">
<g opacity="0.2">
<path opacity="0.2" d="M375.925 233.361H222.199L216.409 149.192H370.135L375.925 233.361ZM223.275 232.215H374.694L369.059 150.338H217.64L223.275 232.215Z" fill="#407BFF"/>
<path opacity="0.2" d="M370.457 162.197H217.892L217.808 161.05H370.373L370.457 162.197Z" fill="#407BFF"/>
<path opacity="0.2" d="M371.267 174.055H218.702L218.618 172.909H371.198L371.267 174.055Z" fill="#407BFF"/>
<path opacity="0.2" d="M372.092 185.914H219.512L219.442 184.767H372.008L372.092 185.914Z" fill="#407BFF"/>
<path opacity="0.2" d="M372.903 197.786H220.324L220.254 196.626H372.819L372.903 197.786Z" fill="#407BFF"/>
<path opacity="0.2" d="M373.715 209.645H221.149L221.065 208.498H373.645L373.715 209.645Z" fill="#407BFF"/>
<path opacity="0.2" d="M374.539 221.503H221.96L221.876 220.356H374.455L374.539 221.503Z" fill="#407BFF"/>
</g>
<g opacity="0.2">
<path opacity="0.2" d="M214.229 156.268H202.427L202.343 155.121H214.145L214.229 156.268Z" fill="#407BFF"/>
<path opacity="0.2" d="M215.041 168.126H203.238L203.154 166.979H214.971L215.041 168.126Z" fill="#407BFF"/>
<path opacity="0.2" d="M215.851 179.985H204.048L203.979 178.838H215.781L215.851 179.985Z" fill="#407BFF"/>
<path opacity="0.2" d="M216.677 191.857H204.875L204.791 190.696H216.594L216.677 191.857Z" fill="#407BFF"/>
<path opacity="0.2" d="M217.488 203.715H205.685L205.602 202.569H217.404L217.488 203.715Z" fill="#407BFF"/>
<path opacity="0.2" d="M218.299 215.574H206.497L206.427 214.427H218.229L218.299 215.574Z" fill="#407BFF"/>
<path opacity="0.2" d="M219.124 227.432H207.321L207.237 226.286H219.04L219.124 227.432Z" fill="#407BFF"/>
</g>
</g>
<path d="M223.066 233.277L222.423 232.285L240.616 221.279L246.252 215.644L258.669 204.694L271.521 209.491L284.54 187.759L302.509 192.472L325.569 177.257L337.106 182.124L367.353 167.035L367.926 168.07L337.217 183.382L325.751 178.558L302.789 193.717L285.141 189.074L272.066 210.903L258.977 206.009L247.063 216.511L241.315 222.244L223.066 233.277Z" fill="#E0E0E0"/>
<path d="M223.179 233.179L222.298 232.396L239.876 212.413L244.896 201.03L261.817 210.777L269.41 192.22L284.107 178.712L302.818 189.256L324.926 168.196L340.7 177.579L366.249 152.981L367.074 153.834L340.924 179.005L325.15 169.622L303.055 190.682L284.331 180.124L270.305 193.003L262.432 212.413L245.469 202.652L240.827 213.14L223.179 233.179Z" fill="#407BFF"/>
<path d="M268.906 293.688L281.464 251.177C299.741 257.666 312.844 274.712 314.158 293.688C315.669 315.559 301.111 334.452 279.842 338.241L268.906 293.688Z" fill="#E0E0E0"/>
<path d="M268.907 293.688L279.829 338.241C277.27 338.703 274.655 338.927 272.026 338.927C247.204 338.927 225.375 318.51 223.669 293.688C221.963 268.867 240.981 248.45 265.803 248.45C271.075 248.45 276.375 249.373 281.465 251.177L268.907 293.688Z" fill="#407BFF"/>
<path d="M345.202 289.954H331.777L335.147 338.94H348.572L345.202 289.954Z" fill="#E0E0E0"/>
<path d="M345.203 289.954H331.778L329.723 260.099H343.161L345.203 289.954Z" fill="#407BFF"/>
<path d="M368.655 298.876H355.23L357.985 338.94H371.41L368.655 298.876Z" fill="#E0E0E0"/>
<path d="M368.654 298.876H355.23L353.957 280.515H367.396L368.654 298.876Z" fill="#407BFF"/>
<path d="M445.649 141.752C444.306 148.604 442.964 161.176 447.76 165.749C447.76 165.749 442.908 174.824 431.231 179.705C422.058 173.957 426.449 165.749 426.449 165.749C434.098 163.917 433.902 158.253 432.56 152.925L445.649 141.752Z" fill="#FF8B7B"/>
<path d="M450.222 169.79C455.228 166.35 455.578 159.833 455.578 159.833C455.578 159.833 437.342 155.177 427.498 157.973C424.463 160.309 419.639 164.616 419.639 164.616C419.639 164.616 420.869 167.399 426.463 169.189C432.042 170.965 450.222 169.79 450.222 169.79Z" fill="#263238"/>
<path d="M471.352 175.104C474.778 180.012 477.841 184.921 480.75 190.053C483.658 195.157 486.399 200.387 488.804 205.869C489.378 207.253 489.993 208.624 490.524 210.05L490.93 211.113L491.14 211.644L491.238 211.91L491.405 212.399C491.853 213.77 491.965 215.154 491.923 216.371C491.769 218.832 491.028 220.72 490.245 222.384C489.448 224.034 488.511 225.446 487.532 226.761C483.574 231.935 479.058 235.739 474.023 239.207L470.206 234.774C473.716 230.579 477.268 226.062 479.687 221.671C480.274 220.58 480.764 219.475 481.099 218.496C481.435 217.517 481.547 216.609 481.463 216.189C481.435 215.979 481.379 215.909 481.337 215.923C481.323 215.923 481.337 215.937 481.323 215.909L481.211 215.672L481.001 215.21L480.568 214.287C480.022 213.057 479.379 211.826 478.764 210.595C477.519 208.134 476.205 205.701 474.82 203.268C473.464 200.835 472.052 198.415 470.597 196.01C467.675 191.242 464.64 186.403 461.605 181.816L471.352 175.104Z" fill="#FF8B7B"/>
<path d="M472.219 233.571L459.773 232.634L466.654 242.157C466.654 242.157 474.023 241.248 475.757 236.773L472.219 233.571Z" fill="#FF8B7B"/>
<path d="M451.69 238.032L457.885 245.695L468.499 241.794L459.773 232.634L451.69 238.032Z" fill="#FF8B7B"/>
<path d="M466.779 168.182L458.864 178.963L459.424 192.29L472.876 204.484C472.876 204.484 479.77 199.576 485.769 194.611C478.246 177.425 471.45 169.566 466.779 168.182Z" fill="#407BFF"/>
<path opacity="0.2" d="M463.914 178.46L459.677 192.528L464.194 196.625C463.578 186.781 463.914 178.46 463.914 178.46Z" fill="black"/>
<path d="M405.558 176.446C405.377 184.823 406.551 202.261 412.438 238.465H459.383C458.6 219.363 457.663 207.393 466.794 168.196C466.794 168.196 457.873 166.238 447.776 165.762C439.875 165.385 433.401 165.133 426.464 165.762C421.878 166.182 416.969 166.923 413.236 167.566C408.859 168.294 405.656 172.027 405.558 176.446Z" fill="#407BFF"/>
<path opacity="0.2" d="M414.731 179.705L406.368 193.311C406.802 198.149 407.445 203.953 408.354 210.889L415.192 206.834C417.989 186.249 414.731 179.705 414.731 179.705Z" fill="black"/>
<path d="M416.102 183.341C414.214 189.843 412.201 196.304 410.117 202.75C408.075 209.197 405.936 215.63 403.754 222.02L403.349 223.223L402.677 224.789C402.188 225.796 401.727 226.691 401.153 227.586C400.048 229.362 398.734 230.942 397.322 232.355C394.525 235.221 391.281 237.333 388.022 239.095C381.338 242.423 374.556 244.325 367.34 245.038L366.375 239.263C369.312 238.354 372.43 237.193 375.297 235.879C378.205 234.592 380.974 233.082 383.477 231.362C385.995 229.67 388.232 227.726 389.98 225.614C390.861 224.565 391.616 223.447 392.189 222.3C392.497 221.755 392.749 221.125 392.973 220.594L393.252 219.811L393.574 218.594C395.322 212.106 397.112 205.631 399 199.185C400.846 192.738 402.761 186.305 404.803 179.915L416.102 183.341Z" fill="#FF8B7B"/>
<path d="M417.528 176.964C415.556 172.237 409.347 169.175 409.347 169.175C402.677 173.524 399.922 178.068 395.489 200.149C402.593 203.337 413.165 203.31 413.165 203.31L418.926 188.445C418.926 188.459 419.514 181.69 417.528 176.964Z" fill="#407BFF"/>
<path d="M368.752 238.647L357.075 238.465L364.515 247.569C364.515 247.569 371.814 246.227 373.283 241.654L368.752 238.647Z" fill="#FF8B7B"/>
<path d="M349.342 244.325L355.97 251.61L364.514 247.569L357.089 238.465L349.342 244.325Z" fill="#FF8B7B"/>
<path d="M421.233 127.46C421.066 128.383 420.45 129.041 419.849 128.929C419.248 128.817 418.898 127.992 419.052 127.069C419.22 126.146 419.835 125.489 420.436 125.601C421.038 125.712 421.401 126.537 421.233 127.46Z" fill="#263238"/>
<path d="M420.702 125.699L418.604 124.678C418.604 124.678 419.43 126.594 420.702 125.699Z" fill="#263238"/>
<path d="M420.841 121.713C420.716 121.671 420.604 121.573 420.534 121.447C420.394 121.182 420.506 120.846 420.786 120.72C423.498 119.378 425.694 120.65 425.778 120.706C426.044 120.86 426.127 121.196 425.974 121.461C425.82 121.727 425.484 121.811 425.218 121.657C425.135 121.601 423.429 120.65 421.261 121.713C421.135 121.769 420.981 121.769 420.841 121.713Z" fill="#263238"/>
<path d="M421.164 130.453C421.164 130.453 418.913 134.131 416.857 135.725C417.864 137.068 420.018 136.914 420.018 136.914L421.164 130.453Z" fill="#FF5652"/>
<path d="M452.88 129.167C450.195 140.312 449.286 145.094 442.574 149.877C432.463 157.065 419.36 151.317 418.661 139.599C418.032 129.041 422.534 112.582 434.365 110.051C446.028 107.547 455.579 118.021 452.88 129.167Z" fill="#FF8B7B"/>
<path d="M463.534 134.405C464.62 124.96 457.843 116.423 448.397 115.337C438.952 114.251 430.415 121.028 429.329 130.473C428.243 139.919 435.02 148.456 444.466 149.542C453.911 150.628 462.448 143.851 463.534 134.405Z" fill="#263238"/>
<path d="M434.715 129.656C447.342 121.363 466.598 116.861 462.403 104.009C459.019 93.6332 443.539 93.1577 431.582 98.0101C415.319 104.611 422.143 137.92 434.715 129.656Z" fill="#263238"/>
<path d="M450.697 111.281C450.474 111.281 450.264 111.183 450.124 110.987L436.881 92.5424C436.657 92.2347 436.727 91.7872 437.035 91.5635C437.343 91.3398 437.79 91.4097 438.014 91.7173L451.257 110.162C451.48 110.47 451.41 110.917 451.103 111.141C450.991 111.239 450.837 111.281 450.697 111.281Z" fill="#407BFF"/>
<path d="M458.823 115.938C458.683 115.938 458.543 115.896 458.417 115.812C458.109 115.588 458.025 115.155 458.263 114.833L471.506 96.388C471.73 96.0664 472.163 95.9965 472.485 96.2342C472.793 96.4579 472.876 96.8915 472.639 97.2131L459.396 115.658C459.256 115.84 459.032 115.938 458.823 115.938Z" fill="#407BFF"/>
<path d="M465.641 135.412C475.009 129.591 478.799 118.752 474.107 111.201C469.416 103.65 458.018 102.248 448.65 108.069C439.283 113.89 435.492 124.73 440.184 132.28C444.876 139.831 456.273 141.233 465.641 135.412Z" fill="#263238"/>
<path d="M412.437 238.465C412.437 238.465 416.408 325.488 417.163 360.728C417.946 397.38 418.296 482.99 418.296 482.99H427.553C427.553 482.99 442.306 411.839 437.943 360.728C444.558 321.474 449.019 238.465 449.019 238.465H412.437V238.465Z" fill="#FF8B7B"/>
<path d="M424.7 238.465C424.7 238.465 446.739 329.599 455.759 363.678C465.226 399.477 478.007 480.347 478.077 483.004H486.076C486.076 483.004 488.593 389.563 475.938 357.791C475.882 317.992 459.38 238.465 459.38 238.465H424.7V238.465Z" fill="#FF8B7B"/>
<path d="M480.806 480.766C487.63 479.633 487.616 482.961 488.19 486.541C488.525 488.597 488.385 490.918 487.281 492.862C485.001 496.862 487.281 502.777 479.575 502.777C471.87 502.777 471.115 501.099 473.073 497.519C475.031 493.939 475.94 490.163 476.737 486.024C477.128 483.954 477.771 481.269 480.806 480.766Z" fill="#263238"/>
<path d="M487.769 487.506C487.937 492.121 488.384 502.777 488.384 502.777L487.168 502.735C487.168 502.735 485.727 491.38 484.944 488.318L487.769 487.506Z" fill="#263238"/>
<path d="M433.302 133.124C432.407 135.32 430.575 136.914 428.757 137.641C426.03 138.732 424.352 136.382 424.827 133.641C425.261 131.18 427.219 127.628 430.085 127.698C432.924 127.754 434.322 130.607 433.302 133.124Z" fill="#FF8B7B"/>
<g opacity="0.2">
<path opacity="0.2" d="M417.065 356.406C417.093 357.917 417.135 359.357 417.163 360.727C417.289 366.391 417.401 373.215 417.499 380.71L438.699 375.676C438.601 370.572 438.349 365.552 437.944 360.727C438.363 358.196 438.783 355.483 439.202 352.617L417.065 356.406Z" fill="black"/>
<path opacity="0.2" d="M475.938 357.791C475.938 354.281 475.798 350.463 475.56 346.408L452.305 350.379C453.591 355.386 454.752 359.888 455.759 363.678C456.374 365.999 457.003 368.503 457.633 371.173L478.609 366.195C477.798 363.077 476.917 360.252 475.938 357.791Z" fill="black"/>
</g>
<path d="M412.437 238.465L413.863 377.047L479.532 363.077C480.567 283.983 474.4 256.645 459.367 238.465H412.437V238.465Z" fill="#263238"/>
<path opacity="0.2" d="M456.696 272.67C456.696 272.67 443.915 283.298 428.253 286.822C444.572 285.578 452.851 280.991 456.696 272.67Z" fill="black"/>
<path d="M410.662 229.712C410.48 231.18 411.473 237.78 411.543 238.619C411.627 239.458 411.85 245.849 412.13 247.303C412.41 248.758 466.066 247.905 464.99 245.695C463.913 243.472 460.487 238.927 460.487 237.948C460.487 236.969 460.109 229.725 459.676 229.124C459.242 228.537 410.928 227.488 410.662 229.712Z" fill="#407BFF"/>
<path opacity="0.2" d="M410.662 229.712C410.48 231.18 411.473 237.78 411.543 238.619C411.627 239.458 411.85 245.849 412.13 247.303C412.41 248.758 466.066 247.905 464.99 245.695C463.913 243.472 460.487 238.927 460.487 237.948C460.487 236.969 460.109 229.725 459.676 229.124C459.242 228.537 410.928 227.488 410.662 229.712Z" fill="white"/>
<path d="M418.256 479.634C415.851 486.556 408.887 498.889 408.887 498.889L422.102 495.24L428.59 485.045L427.15 482.346L418.256 479.634Z" fill="#FF8B7B"/>
<path d="M429.162 481.591C429.749 482.766 429.959 484.081 429.945 485.367C429.861 490.122 429.33 502.721 429.33 502.721H428.211C428.211 502.721 428.183 494.233 427.624 491.114C427.065 487.982 425.708 493.506 423.624 496.61C421.527 499.729 417.402 502.539 410.172 502.721C401.698 502.931 398.271 502.553 400.719 500.498C403.18 498.442 408.801 497.128 408.801 497.128C408.801 497.128 416.059 497.295 419.933 490.289C422.45 485.745 425.498 481.228 427.61 480.165C428.323 480.291 428.813 480.878 429.162 481.591Z" fill="#263238"/>
</svg>
